<svg
        xmlns="http://www.w3.org/2000/svg"
        width="301"
        height="301"
        viewBox="0 0 501 501"
        fill="none"
>
    <path
            className={"fill-current"}
    d="M252.416 190.076C246.045 190.076 240.571 188.459 235.993 185.227C231.41 181.993 227.958 177.918 225.626 172.988C223.297 168.063 222.133 162.983 222.133 157.745C222.133 149.431 223.764 142.429 227.024 136.731C230.286 131.039 234.554 126.264 239.835 122.414C245.114 118.568 251.018 115.255 257.54 112.486C264.063 109.714 270.585 107.174 277.108 104.866V92.3947C277.108 89.4708 276.874 86.9309 276.41 84.7748C275.943 82.6213 275.048 80.9636 273.73 79.8093C272.409 78.6549 270.506 78.0778 268.023 78.0778C265.54 78.0778 263.632 78.5787 262.316 79.5779C260.995 80.5822 260.064 82.0416 259.521 83.9663C258.974 85.8935 258.625 88.0089 258.472 90.3175L257.774 99.5545L224.462 98.1688C225.236 82.4662 229.391 70.8443 236.924 63.2981C244.455 55.757 255.83 51.9839 271.052 51.9839C284.718 51.9839 294.813 55.7188 301.335 63.1837C307.858 70.6536 311.12 80.4678 311.12 92.6261V154.745C311.12 159.98 311.235 164.638 311.469 168.716C311.702 172.797 312.013 176.418 312.4 179.57C312.785 182.728 313.136 185.459 313.449 187.767H281.768C281.301 184.383 280.755 180.689 280.137 176.682C279.514 172.68 279.049 169.985 278.739 168.599C277.185 174.142 274.233 179.108 269.888 183.493C265.538 187.882 259.713 190.073 252.416 190.073V190.076ZM265.23 165.368C266.938 165.368 268.567 164.986 270.121 164.213C271.673 163.446 273.032 162.446 274.197 161.211C275.361 159.98 276.331 158.826 277.108 157.748V121.031C273.845 123.035 270.819 124.998 268.023 126.92C265.227 128.847 262.819 130.96 260.8 133.271C258.779 135.58 257.225 138.119 256.14 140.891C255.053 143.662 254.509 146.82 254.509 150.359C254.509 154.979 255.44 158.638 257.305 161.328C259.169 164.023 261.806 165.368 265.225 165.368H265.23Z"
    />
    <path
            className={"fill-current"}
    d="M35.999 187.767V0.716309H74.4358V161.905H118.697V187.77H35.999V187.767Z"
    />
    <path
            className={"fill-current"}
    d="M169.017 190.076C159.075 190.076 150.765 188.266 144.092 184.65C137.413 181.035 132.363 175.723 128.949 168.716C125.53 161.712 123.824 153.283 123.824 143.428V98.629C123.824 88.4691 125.532 79.9644 128.949 73.1123C132.363 66.2627 137.487 61.0276 144.325 57.4096C151.158 53.7942 159.386 51.9839 169.019 51.9839C179.268 51.9839 187.576 53.8323 193.944 57.5266C200.31 61.2209 205.009 66.611 208.038 73.692C211.067 80.7754 212.581 89.3946 212.581 99.5571V122.88H158.534V148.745C158.534 152.594 158.96 155.752 159.817 158.213C160.668 160.677 161.874 162.408 163.428 163.41C164.98 164.414 166.921 164.91 169.253 164.91C171.425 164.91 173.328 164.412 174.96 163.41C176.591 162.411 177.791 160.834 178.571 158.676C179.345 156.522 179.735 153.675 179.735 150.13V137.428H212.35V148.513C212.35 162.062 208.623 172.377 201.167 179.458C193.714 186.542 182.998 190.081 169.019 190.081L169.017 190.076ZM158.534 106.249H179.733V93.0863C179.733 89.2395 179.343 86.1224 178.568 83.7324C177.789 81.3475 176.588 79.6542 174.957 78.6524C173.326 77.6532 171.266 77.1523 168.783 77.1523C166.454 77.1523 164.551 77.6939 163.077 78.7694C161.599 79.8474 160.473 81.7365 159.699 84.4265C158.919 87.1216 158.534 90.9328 158.534 95.8577V106.249Z"
    />
    <path
            className={"fill-current"}
    d="M364.932 190.076C353.285 190.076 343.693 187.269 336.162 181.647C328.627 176.029 322.766 167.369 318.575 155.668L343.27 145.508C345.598 151.974 348.394 157.018 351.657 160.634C354.919 164.252 358.723 166.059 363.07 166.059C366.333 166.059 368.777 165.33 370.408 163.865C372.039 162.403 372.855 160.364 372.855 157.745C372.855 154.051 371.611 150.741 369.128 147.814C366.643 144.89 362.216 140.809 355.85 135.574L343.27 124.952C336.747 119.409 331.505 113.907 327.545 108.441C323.584 102.977 321.604 96.1653 321.604 88.0038C321.604 80.7703 323.428 74.4572 327.078 69.0671C330.725 63.6794 335.616 59.4843 341.754 56.4816C347.886 53.4788 354.527 51.9788 361.672 51.9788C372.699 51.9788 381.742 55.0959 388.811 61.3302C395.877 67.5644 400.653 75.9954 403.138 86.6181L380.308 96.778C379.377 93.3939 378.131 90.1954 376.582 87.1953C375.027 84.1925 373.047 81.6932 370.642 79.6897C368.233 77.6913 365.553 76.687 362.606 76.687C359.81 76.687 357.558 77.5337 355.85 79.227C354.139 80.9229 353.288 83.0764 353.288 85.6926C353.288 88.464 354.722 91.3904 357.597 94.4669C360.469 97.5484 364.468 101.243 369.595 105.552L382.176 116.638C385.902 119.872 389.55 123.299 393.125 126.915C396.695 130.533 399.647 134.535 401.976 138.923C404.305 143.311 405.47 148.356 405.47 154.048C405.47 161.747 403.605 168.289 399.878 173.677C396.151 179.067 391.219 183.145 385.087 185.916C378.949 188.688 372.234 190.073 364.937 190.073L364.932 190.076Z"
    />
    <path
            className={"fill-current"}
    d="M416.184 225.409V200.93C421.308 200.93 425.502 200.62 428.764 200.007C432.027 199.389 434.471 198.276 436.102 196.659C437.734 195.042 438.549 192.768 438.549 189.847C438.549 187.539 438.044 184.383 437.036 180.379C436.023 176.377 434.9 171.915 433.658 166.985L402.908 54.2925H436.22L453.459 136.271L467.437 54.2925H500.983L469.766 191.927C467.901 200.546 464.834 207.284 460.563 212.132C456.29 216.981 451.089 220.406 444.956 222.409C438.819 224.408 431.714 225.412 423.64 225.412H416.186L416.184 225.409Z"
    />
    <path
            d="M246.114 182.769C246.114 182.769 255.088 234.888 242.438 270.323C229.791 305.758 278.172 286.016 278.267 284.317C278.362 282.619 295.446 254.931 293.715 251.821C291.981 248.709 299.552 206.757 293.592 193.104C287.631 179.451 246.114 182.771 246.114 182.771V182.769Z"
            fill="#D79D77"
    />
    <path
            d="M249.215 199.297C249.215 199.297 279.354 204.431 288.942 221.565C298.529 238.699 295.803 205.504 295.803 205.504L295.559 200.983L250.197 191.253"
            fill="#BE8560"
    />
    <path
            d="M261.205 293.041C254.178 294.337 246.052 294.485 241.377 290.005C237.086 285.894 236.632 278.986 240.025 269.474C252.3 235.081 243.677 183.707 243.59 183.191C243.469 182.489 243.652 181.77 244.093 181.208C244.534 180.646 245.19 180.295 245.906 180.236C250.343 179.88 289.437 177.198 295.938 192.09C300.096 201.609 298.224 222.435 296.859 237.639C296.364 243.151 295.805 249.383 296.064 250.807C297.311 253.532 294.982 258.953 284.894 277.127C283.155 280.262 281.193 283.793 280.793 284.772C280.626 286.023 279.708 287.139 273.77 289.451C272.006 290.137 266.976 291.975 261.208 293.038L261.205 293.041ZM249.071 185.11C250.754 196.501 256.05 239.793 244.852 271.17C241.979 279.217 242.243 284.523 245.634 286.939C252.964 292.161 272.542 284.938 276.053 282.871C276.535 281.711 277.682 279.601 280.411 274.686C283.868 268.457 290.991 255.627 291.27 252.604C290.619 250.906 290.824 247.646 291.763 237.192C293.007 223.355 294.884 202.445 291.242 194.106C287.649 185.876 264.563 184.241 249.071 185.108V185.11Z"
            fill="#262F6A"
    />
    <path
            d="M203.475 178.421C203.475 178.421 238.503 237.486 235.03 270.788C231.56 304.09 165.349 233.065 165.656 225.125C165.962 217.184 166.095 197.07 166.198 196.6C166.3 196.13 177.414 187.503 177.414 187.503"
            fill="#D79D77"
    />
    <path
            d="M195.066 204.812C195.066 204.812 213.604 202.245 221.412 214.085L211.501 195.225L186.266 195.326"
            fill="#BE8560"
    />
    <path
            d="M231.487 281.335C229.673 282.12 227.791 282.225 226.321 282.123C214.546 281.297 196.743 265.436 187.179 256.054C180.405 249.411 162.875 230.883 163.103 225.028C163.282 220.37 163.403 211.395 163.49 204.84C163.603 196.506 163.611 196.465 163.698 196.066C163.934 194.985 163.995 194.696 175.837 185.504C176.95 184.64 178.559 184.836 179.428 185.937C180.3 187.04 180.103 188.634 178.992 189.496C174.875 192.692 170.331 196.3 168.715 197.693C168.684 199.092 168.645 201.937 168.604 204.904C168.517 211.446 168.397 220.393 168.215 225.135C168.681 227.804 178.369 240.479 192.088 253.72C207.382 268.482 220.594 277.213 227.434 277.076C228.742 277.05 231.81 276.989 232.484 270.521C235.829 238.435 201.614 180.285 201.268 179.7C200.552 178.492 200.96 176.939 202.178 176.229C203.389 175.522 204.964 175.924 205.679 177.129C207.126 179.57 241.092 237.301 237.576 271.042C236.927 277.269 234.293 280.114 231.487 281.33V281.335ZM168.215 225.211C168.215 225.211 168.215 225.219 168.215 225.224C168.215 225.221 168.215 225.216 168.215 225.211Z"
            fill="#262F6A"
    />
    <path
            d="M380.536 289.847C397.98 405.446 233.081 504.276 138.92 397.251L115.891 372.449L188.973 326.584"
            fill="#D79D77"
    />
    <path
            d="M141.853 377.376C141.853 377.376 191.662 363.003 228.726 322.674L221.032 318.474C206.058 341.738 177.27 360.611 141.853 377.376Z"
            fill="#BE8560"
    />
    <path
            d="M380.536 289.847C397.98 405.446 233.081 504.276 138.92 397.251L115.891 372.446L121.205 369.11L132.229 380.989C154.902 406.76 181.679 420.596 209.025 425.13L208.261 424.723L219.077 421.118C219.077 421.118 287.486 395.799 301.801 345.93L308.995 343.248C297.956 379.914 276.191 405.672 244.93 421.771C242.773 422.882 243.769 426.124 246.182 425.826C306.897 418.364 362.447 370.331 373.239 311.319C373.814 308.179 366.881 303.384 367.197 300.185C367.553 296.575 375.119 294.553 375.127 290.882L380.544 289.847H380.536Z"
            fill="#BE8560"
    />
    <path
            d="M294.017 433.393C268.263 444.547 241.133 448.18 215.328 443.906C185.647 438.989 158.56 423.434 136.995 398.921L114.011 374.167C113.498 373.613 113.257 372.863 113.357 372.118C113.457 371.373 113.886 370.709 114.527 370.308L187.609 324.443C188.797 323.688 190.382 324.044 191.139 325.229C191.895 326.414 191.539 327.98 190.346 328.727L119.851 372.965L140.804 395.532C181.064 441.29 238.65 453.225 294.907 427.431C352.075 401.243 386.249 344.821 378.008 290.221C377.8 288.835 378.765 287.546 380.16 287.338C381.558 287.132 382.861 288.085 383.069 289.471C387.452 318.516 380.837 347.88 363.94 374.388C348.258 398.99 324.505 419.462 297.054 432.035C296.046 432.498 295.03 432.95 294.017 433.388V433.393Z"
            fill="#262F6A"
    />
    <path
            d="M371.425 307.411L371.212 310.602C371.027 313.31 369.365 315.7 366.864 316.829L288.714 352.03C286.577 352.991 284.105 352.892 282.048 351.771L227.975 322.264L196.225 304.935C190.724 301.929 191.216 293.931 197.046 291.617L237.494 275.576L271.178 262.225C273.006 261.498 275.038 261.524 276.849 262.279L366.898 300.127C369.819 301.352 371.63 304.276 371.419 307.411H371.425Z"
            fill="#CECBD3"
    />
    <path
            d="M291.33 330.789C290.707 331.059 289.991 331.018 289.401 330.678L224.441 293.081C223.736 292.674 223.328 291.902 223.39 291.096C223.451 290.29 223.98 289.59 224.731 289.29L270.542 271.294C271.075 271.083 271.671 271.096 272.194 271.327L342.65 302.392C343.409 302.728 343.902 303.467 343.914 304.291C343.927 305.112 343.458 305.87 342.709 306.226L291.399 330.754C291.376 330.764 291.351 330.777 291.327 330.787L291.33 330.789ZM230.377 291.622L290.573 326.462L336.715 304.406L271.281 275.556L230.377 291.624V291.622Z"
            fill="#262F6A"
    />
    <path
            d="M330.946 311.382C330.504 311.573 329.984 311.578 329.517 311.354L261.279 278.436C260.433 278.027 260.079 277.015 260.492 276.176C260.902 275.337 261.923 274.986 262.772 275.395L331.01 308.313C331.856 308.723 332.21 309.735 331.797 310.574C331.612 310.95 331.307 311.227 330.948 311.382H330.946Z"
            fill="#262F6A"
    />
    <path
            d="M316.334 318.367C315.864 318.57 315.308 318.562 314.823 318.298L250.071 282.766C249.248 282.314 248.947 281.284 249.404 280.468C249.86 279.649 250.899 279.354 251.723 279.807L316.475 315.338C317.298 315.791 317.598 316.821 317.141 317.637C316.954 317.975 316.664 318.224 316.334 318.367Z"
            fill="#262F6A"
    />
    <path
            d="M258.422 298.357C257.935 298.568 257.357 298.55 256.868 298.261L238.326 287.335C237.516 286.857 237.252 285.82 237.731 285.019C238.213 284.218 239.26 283.951 240.068 284.429L258.609 295.354C259.42 295.832 259.684 296.87 259.204 297.671C259.014 297.986 258.737 298.22 258.422 298.355V298.357Z"
            fill="#262F6A"
    />
    <path
            d="M284.437 282.075L240.517 301.09C239.652 301.464 238.647 301.072 238.27 300.218C237.893 299.361 238.288 298.365 239.15 297.991L283.07 278.975C283.934 278.602 284.94 278.993 285.317 279.848C285.694 280.704 285.299 281.701 284.437 282.075Z"
            fill="#262F6A"
    />
    <path
            d="M285.487 342.696C284.876 342.96 284.176 342.927 283.594 342.604L217.136 305.812C216.108 305.242 215.741 303.956 216.315 302.936C216.89 301.919 218.19 301.553 219.216 302.122L284.715 338.384L367.903 299.384C368.965 298.893 370.237 299.336 370.742 300.391C371.245 301.446 370.791 302.707 369.727 303.206L285.546 342.671C285.528 342.681 285.507 342.688 285.487 342.696Z"
            fill="#262F6A"
    />
    <path
            d="M270.023 290.892C270.023 290.892 294.356 260.059 323.038 293.994L329.04 299.697C329.04 299.697 315.449 301.586 305.667 314.586C295.887 327.586 270.021 290.895 270.021 290.895L270.023 290.892Z"
            fill="#FFEEE5"
    />
    <path
            d="M289.641 354.394C286.809 355.62 283.519 355.475 280.81 353.995L194.993 307.154C191.572 305.285 189.594 301.726 189.835 297.861C190.076 293.997 192.477 290.674 196.104 289.265L270.235 259.871C272.7 258.892 275.406 258.92 277.853 259.947L367.905 297.79C371.821 299.435 374.263 303.368 373.981 307.576L373.765 310.765C373.522 314.413 371.283 317.619 367.925 319.132L289.774 354.333C289.731 354.354 289.687 354.371 289.644 354.392L289.641 354.394ZM197.85 294.037C196.142 294.777 195.06 296.31 194.944 298.171C194.826 300.089 195.768 301.784 197.463 302.71L283.28 349.551C284.624 350.286 286.253 350.375 287.658 349.719L365.809 314.517C367.451 313.78 368.543 312.214 368.661 310.431L368.877 307.243C369.015 305.189 367.823 303.267 365.909 302.463L275.858 264.618C274.662 264.117 273.341 264.102 272.136 264.58L198.004 293.974C197.953 293.994 197.902 294.017 197.85 294.037Z"
            fill="#262F6A"
    />
    <path
            d="M303.915 319.18C302.758 319.681 301.494 319.928 300.147 319.905C287.58 319.712 269.903 295.143 267.928 292.344C267.284 291.431 267.317 290.206 268.01 289.329C268.446 288.777 278.875 275.792 294.561 275.53C305.136 275.355 315.347 280.982 324.911 292.258L330.813 297.866C331.521 298.54 331.78 299.552 331.477 300.478C331.174 301.403 330.364 302.074 329.397 302.209C329.279 302.227 316.696 304.169 307.719 316.101C306.654 317.515 305.369 318.55 303.913 319.18H303.915ZM273.291 291.06C280.462 300.823 293.125 314.726 300.227 314.833C301.638 314.856 302.684 314.309 303.62 313.066C310.376 304.088 318.794 300.089 323.962 298.377L321.271 295.822C321.205 295.759 321.141 295.69 321.079 295.619C312.541 285.517 303.661 280.465 294.687 280.598C284.258 280.753 276.258 287.953 273.291 291.058V291.06Z"
            fill="#262F6A"
    />
    <path
            d="M324.481 296.709C323.803 297.002 323.006 297.004 322.298 296.646C313.275 292.105 302.962 299.089 302.856 299.16C301.7 299.961 300.104 299.679 299.296 298.532C298.488 297.386 298.765 295.809 299.922 295.006C300.443 294.642 312.826 286.191 324.614 292.123C325.873 292.756 326.376 294.284 325.737 295.532C325.458 296.079 325.006 296.481 324.481 296.707V296.709Z"
            fill="#262F6A"
    />
    <path
            d="M309.153 283.755C308.886 283.87 308.594 283.943 308.286 283.961C301.071 284.404 294.246 290.066 294.179 290.122C293.102 291.027 291.486 290.895 290.573 289.827C289.66 288.759 289.793 287.157 290.871 286.252C291.202 285.975 299.078 279.441 307.971 278.899C309.381 278.813 310.594 279.875 310.682 281.274C310.748 282.367 310.11 283.341 309.153 283.755Z"
            fill="#262F6A"
    />
    <path
            d="M278.059 262.79L366.19 299.826C366.808 300.086 367.452 300.289 368.114 300.411C371.125 300.968 379.04 301.469 383.372 292.73C383.767 291.935 384.044 291.08 384.203 290.208L397.732 216.513C398.512 212.259 396.347 207.998 392.428 206.101C359.737 190.282 328.34 179.885 299.001 178.101C294.336 177.816 290.145 180.92 289.016 185.415L272.404 251.562C271.247 256.174 273.643 260.934 278.057 262.79H278.059Z"
            fill="#CECBD3"
    />
    <g opacity="0.6">
        <path
                d="M397.277 211.418C396.759 211.024 396.195 210.671 395.59 210.378C362.906 194.561 331.505 184.165 302.168 182.377C297.5 182.093 293.314 185.197 292.185 189.69L275.573 255.841C275.081 257.789 275.229 259.772 275.906 261.536C272.903 259.24 271.456 255.345 272.403 251.559L289.02 185.416C290.149 180.923 294.337 177.819 299.003 178.103C328.35 179.888 359.738 190.277 392.432 206.099C394.738 207.213 396.436 209.145 397.28 211.418H397.277Z"
                fill="white"
        />
    </g>
    <g opacity="0.3">
        <path
                d="M397.734 216.505L384.205 290.206C384.041 291.08 383.766 291.937 383.371 292.725C379.042 301.464 371.124 300.963 368.118 300.411C367.449 300.287 366.81 300.083 366.195 299.824L278.059 262.79C274.768 261.401 272.598 258.401 272.19 255.045C272.583 255.281 272.988 255.485 273.414 255.668L361.55 292.702C362.17 292.969 362.817 293.168 363.473 293.29C366.484 293.849 374.399 294.35 378.729 285.611C379.121 284.813 379.396 283.956 379.56 283.084L393.092 209.391C393.272 208.428 393.292 207.459 393.182 206.511C396.624 208.555 398.46 212.537 397.734 216.503V216.505Z"
                fill="#3A343F"
        />
    </g>
    <path
            className={"fill-primary"}
    d="M383.425 220.129L371.883 282.71C371.198 286.412 367.246 288.556 363.732 287.127L315.174 267.343L304.558 263.021L304.412 262.965L304.41 262.957L287.636 256.126C284.891 255.007 283.391 252.05 284.117 249.2L297.569 196.087C298.29 193.247 301.001 191.373 303.945 191.637C326.934 193.691 352.808 202.339 379.847 213.599C382.432 214.675 383.93 217.393 383.425 220.131V220.129Z"
    />
    <g opacity="0.3">
        <path
                d="M383.509 218.692C356.517 207.449 330.668 198.817 307.711 196.768C304.764 196.503 302.055 198.377 301.337 201.225L287.879 254.331C287.72 254.943 287.674 255.553 287.715 256.153L287.636 256.123C284.891 255.004 283.391 252.047 284.117 249.197L297.569 196.084C298.29 193.244 301.001 191.37 303.945 191.634C326.934 193.689 352.808 202.336 379.847 213.597C381.978 214.482 383.371 216.48 383.507 218.692H383.509Z"
                fill="#3A343F"
        />
    </g>
    <path
            d="M377.611 301.868C373.453 303.668 369.349 303.218 367.644 302.903C366.828 302.751 366.002 302.501 365.189 302.158L277.058 265.121C271.452 262.764 268.451 256.802 269.923 250.947L286.535 184.8C287.969 179.092 293.276 175.21 299.16 175.566C326.875 177.252 357.751 186.494 393.554 203.818C398.481 206.201 401.235 211.606 400.25 216.963L386.721 290.658C386.516 291.782 386.159 292.855 385.669 293.847C383.51 298.202 380.55 300.594 377.613 301.866L377.611 301.868ZM279.056 260.453L367.187 297.49C367.664 297.691 368.131 297.833 368.582 297.917C371.786 298.51 377.67 298.474 381.073 291.612C381.358 291.04 381.56 290.417 381.683 289.753L395.213 216.058C395.788 212.928 394.179 209.77 391.304 208.38C356.117 191.352 325.872 182.276 298.842 180.633C295.423 180.425 292.335 182.695 291.496 186.031L274.883 252.177C274.024 255.599 275.779 259.08 279.051 260.458L279.056 260.453Z"
            fill="#262F6A"
    />
    <path
            d="M369.244 289.013C367.238 289.883 364.974 289.913 362.924 289.077L286.828 258.076C283.127 256.568 281.072 252.531 282.047 248.684L295.502 195.573C296.482 191.711 300.114 189.168 304.135 189.527C324.516 191.352 348.836 198.38 380.673 211.649C384.161 213.104 386.198 216.831 385.52 220.51L373.984 283.089C373.543 285.487 372.052 287.528 369.895 288.698C369.683 288.812 369.465 288.919 369.244 289.013ZM299.639 196.603L286.184 249.713C285.722 251.536 286.697 253.453 288.451 254.168L364.548 285.169C365.625 285.609 366.828 285.543 367.851 284.988C368.875 284.434 369.58 283.465 369.79 282.329L381.327 219.75C381.65 218.003 380.681 216.236 379.021 215.544C347.602 202.45 323.685 195.52 303.753 193.735C301.835 193.564 300.103 194.769 299.639 196.6V196.603Z"
            fill="#262F6A"
    />
    <path
            d="M379.352 190.17C380.812 193.836 381.525 197.505 381.23 200.869C373.753 197.584 366.739 194.617 360.939 192.479C360.652 192.372 360.362 192.268 360.075 192.161L338.325 169.522C350.018 156.146 372.615 173.168 379.352 190.167V190.17Z"
            fill="#D79D77"
    />
    <path
            d="M379.352 190.17C380.811 193.836 381.524 197.505 381.229 200.869C373.752 197.584 366.738 194.617 360.938 192.478L362.305 189.349L362.023 182.903C362.023 182.903 369.074 194.952 378.528 190.516C378.805 190.386 379.087 190.264 379.352 190.167V190.17Z"
            fill="#BE8560"
    />
    <g opacity="0.6">
        <path
                d="M381.229 200.869C381.103 200.813 380.965 200.752 380.837 200.698C378.546 183.02 353.965 160.758 340.181 171.459L338.324 169.525C352.541 153.257 382.878 181.935 381.229 200.869Z"
                fill="white"
        />
    </g>
    <path
            d="M382.25 203.198C381.596 203.48 380.849 203.483 380.188 203.193C370.98 199.145 364.306 196.397 359.189 194.541C357.863 194.06 357.178 192.603 357.666 191.289C358.151 189.974 359.62 189.296 360.946 189.776C365.455 191.411 371.113 193.709 378.562 196.938C377.13 186.499 366.93 173.486 355.811 168.823C351.308 166.934 344.954 165.81 340.261 171.183C339.335 172.243 337.719 172.357 336.652 171.439C335.585 170.522 335.47 168.92 336.393 167.862C341.628 161.872 349.233 160.557 357.804 164.153C370.831 169.616 385.012 186.944 383.773 201.095C383.702 201.912 383.237 202.644 382.524 203.058C382.434 203.112 382.342 203.157 382.247 203.198H382.25Z"
            fill="#262F6A"
    />
    <path
            d="M362.452 186.519C364.833 192.979 346.563 193.75 344.506 203.866C344.506 203.866 343.963 203.373 343.232 202.537C341.772 200.892 339.561 197.927 339.433 194.993L334.716 204.878C334.716 204.878 330.446 203.378 328.55 195.916L326.188 200.841C326.188 200.841 317.693 181.569 337.617 169.489C337.617 169.489 341.423 167.841 345.265 173.666C345.265 173.666 351.926 172.395 354.971 178.797C354.971 178.797 356.181 179.095 357.687 180.147C359.29 181.251 361.229 183.198 362.447 186.516L362.452 186.519Z"
            fill="#FFEEE5"
    />
    <path
            d="M345.53 206.185C345.453 206.219 345.373 206.249 345.294 206.274C344.414 206.557 343.45 206.348 342.77 205.725C342.444 205.428 340.692 203.775 339.182 201.446L337.027 205.959C336.466 207.136 335.098 207.698 333.86 207.266C333.447 207.121 330.677 206.03 328.358 202.186C327.886 202.934 327.05 203.391 326.15 203.376C325.147 203.361 324.247 202.766 323.847 201.856C323.752 201.642 314.711 180.409 336.281 167.323C336.381 167.262 336.486 167.209 336.591 167.163C336.814 167.066 341.78 165.014 346.504 171.015C349.585 170.979 354.112 172.151 356.789 176.761C358.78 177.607 362.755 179.949 364.856 185.649C366.779 190.864 361.288 193.6 356.874 195.799C352.639 197.91 347.838 200.3 347.012 204.368C346.845 205.184 346.289 205.86 345.53 206.191V206.185ZM338.407 192.664C338.876 192.461 339.407 192.397 339.936 192.502C341.087 192.73 341.934 193.709 341.988 194.874C342.049 196.259 342.86 197.808 343.783 199.13C346.325 195.372 350.8 193.145 354.578 191.261C357.177 189.967 360.408 188.355 360.052 187.386C358.203 182.37 354.489 181.294 354.332 181.251C353.617 181.053 352.988 180.547 352.67 179.883C350.565 175.467 346.222 176.074 345.735 176.158C344.729 176.331 343.693 175.899 343.134 175.052C340.959 171.757 339.164 171.75 338.666 171.823C327.537 178.719 326.357 187.92 327.045 193.864C327.542 193.503 328.166 193.325 328.807 193.389C329.882 193.493 330.772 194.256 331.036 195.293C331.756 198.126 332.826 199.893 333.752 200.971L337.122 193.908C337.394 193.338 337.858 192.906 338.412 192.667L338.407 192.664Z"
            fill="#262F6A"
    />
    <path
            d="M329.571 198.235C329.196 198.398 328.776 198.474 328.34 198.436C326.934 198.321 325.888 197.104 326.001 195.708C326.06 194.968 327.668 177.539 344.37 171.289C345.691 170.796 347.168 171.46 347.666 172.769C348.163 174.081 347.502 175.533 346.173 176.036C332.536 181.124 331.153 195.509 331.102 196.12C331.02 197.081 330.407 197.871 329.573 198.232L329.571 198.235Z"
            fill="#262F6A"
    />
    <path
            d="M340.451 197.307C339.989 197.505 339.466 197.574 338.938 197.47C337.555 197.2 336.655 195.881 336.919 194.51C337.024 193.969 339.661 181.21 354.552 176.494C355.899 176.067 357.338 176.804 357.769 178.136C358.2 179.471 357.461 180.897 356.112 181.325C344.193 185.095 342.031 195.057 341.944 195.479C341.772 196.323 341.195 196.984 340.453 197.307H340.451Z"
            fill="#262F6A"
    />
    <g opacity="0.3">
        <path
                d="M362.452 186.519C364.832 192.979 346.563 193.75 344.506 203.867C344.506 203.867 343.962 203.373 343.231 202.537L343.003 200.709C343.003 200.709 341.854 195.209 347.481 192.311C353.101 189.415 360.18 185.843 357.761 182.38C357.063 181.391 357.153 180.641 357.689 180.15C359.292 181.253 361.231 183.201 362.45 186.519H362.452Z"
                fill="#3A343F"
        />
    </g>
    <path
            d="M304.41 262.955C304.467 262.978 304.51 262.993 304.559 263.018L304.413 262.962L304.41 262.955Z"
            fill="#3A343F"
    />
    <g opacity="0.3">
        <path
                d="M383.425 220.128L371.884 282.71C371.199 286.412 367.246 288.555 363.732 287.126L315.175 267.343C353.14 280.615 374.833 262.863 383.425 220.128Z"
                fill="#3A343F"
        />
    </g>
    <g opacity="0.3">
        <path
                d="M371.424 307.411L371.211 310.602C371.027 313.31 369.365 315.699 366.864 316.828L288.713 352.03C286.577 352.991 284.104 352.892 282.047 351.77L227.975 322.264L196.225 304.934C194.681 304.09 193.606 302.857 192.993 301.464C192.919 301.294 192.849 301.121 192.79 300.943C192.706 300.711 192.639 300.472 192.575 300.244C192.542 300.083 192.503 299.915 192.483 299.758C192.442 299.537 192.413 299.308 192.395 299.076C192.388 298.952 192.383 298.832 192.372 298.708C192.372 298.67 192.372 298.624 192.372 298.586C192.365 298.507 192.37 298.431 192.37 298.347C192.38 297.78 192.46 297.2 192.596 296.643C193.139 294.497 194.635 292.568 197.043 291.617L237.491 275.576C238.511 281.693 241.299 303.668 231.44 318.077L279.875 344.509C281.932 345.63 284.404 345.729 286.541 344.768L304.292 336.777C306.467 328.982 308.727 318.102 306.744 311.657L323.851 301.655L327.845 299.926L335.229 301.433C335.229 301.433 315.718 309.384 314.059 320.251C313.361 324.853 313.684 329.01 314.295 332.272L364.694 309.569C367.192 308.441 368.857 306.051 369.041 303.343L369.154 301.614C370.709 303.091 371.57 305.199 371.422 307.413L371.424 307.411Z"
                fill="#3A343F"
        />
    </g>
    <path
            d="M117.125 384.398C117.125 384.398 147.208 437.176 209.149 423.574C271.09 409.971 295.184 365.403 302.107 343.802C309.027 322.201 308.973 303.775 297.128 291.683C285.286 279.59 264.48 287.986 258.266 296.058C252.051 304.131 244.644 338.704 226.441 350.893C208.239 363.082 187.079 363.636 187.079 363.636"
            fill="#D79D77"
    />
    <path
            d="M302.109 343.805C295.184 365.401 271.087 409.969 209.148 423.574C147.21 437.179 117.127 384.396 117.127 384.396L126.945 381.482C139.431 396.214 166.7 419.681 208.805 410.736C268.699 398.026 291.483 354.028 297.913 332.635C302.027 318.934 303.389 306.501 300.772 296.13C308.888 308.085 308.226 324.7 302.111 343.807L302.109 343.805Z"
            fill="#BE8560"
    />
    <path
            d="M195.053 163.537C195.053 163.537 173.003 170.16 170.961 189.809L168.481 189.646L152.12 188.586C152.12 188.586 134.22 166.975 154.654 155.968C154.654 155.968 165.416 144.85 173.957 151.918C173.957 151.918 175.85 151.486 178.52 151.483L178.53 151.488C183.909 151.465 192.455 153.161 195.055 163.537H195.053Z"
            fill="#FFEEE5"
    />
    <path
            d="M171.979 192.133C171.617 192.291 171.212 192.367 170.788 192.339L151.95 191.118C151.244 191.073 150.588 190.74 150.139 190.198C149.741 189.717 140.423 178.307 142.644 167.031C143.719 161.584 147.228 157.178 153.083 153.934C157.349 149.693 166.741 143.838 174.587 149.213C181.692 148.035 194.17 149.525 197.535 162.927C197.863 164.236 197.094 165.574 195.798 165.965C195.596 166.029 175.344 172.377 173.502 190.071C173.405 191.012 172.799 191.782 171.979 192.135V192.133ZM153.45 186.133L168.765 187.124C171.681 171.566 186.042 164.323 191.872 161.986C187.673 151.61 175.09 154.265 174.523 154.389C173.748 154.562 172.928 154.369 172.32 153.863C165.723 148.407 156.587 157.638 156.495 157.73C156.313 157.916 156.102 158.076 155.874 158.2C151.224 160.705 148.467 163.995 147.674 167.987C146.204 175.395 151.552 183.532 153.453 186.133H153.45Z"
            fill="#262F6A"
    />
    <path
            d="M167.611 189.257C167.324 189.382 167.009 189.455 166.678 189.466C165.265 189.514 164.08 188.421 164.031 187.02C163.244 164.709 171.423 151.157 171.772 150.593C172.508 149.398 174.083 149.019 175.288 149.751C176.493 150.481 176.873 152.04 176.14 153.235C176.032 153.413 168.414 166.191 169.143 186.844C169.181 187.915 168.542 188.853 167.609 189.257H167.611Z"
            fill="#262F6A"
    />
    <path
            d="M161.638 186.618C160.566 187.084 159.276 186.768 158.555 185.794C146.305 169.266 153.294 154.346 153.6 153.721C154.21 152.457 155.739 151.926 157.013 152.531C158.286 153.136 158.822 154.646 158.216 155.907C157.957 156.454 152.32 168.813 162.679 182.792C163.515 183.921 163.272 185.507 162.133 186.336C161.976 186.45 161.812 186.544 161.64 186.618H161.638Z"
            fill="#262F6A"
    />
    <g opacity="0.3">
        <path
                d="M195.052 163.537C195.052 163.537 173.002 170.161 170.961 189.809L168.48 189.646C168.214 189.209 168.191 188.546 168.445 187.623C171.156 177.684 178.824 166.301 183.044 159.51C187.17 152.869 178.889 151.539 178.529 151.483C183.908 151.46 192.454 153.156 195.055 163.532L195.052 163.537Z"
                fill="#3A343F"
        />
    </g>
    <g opacity="0.3">
        <path
                d="M159.081 153.441C159.081 153.441 167.44 151.554 165.87 156.967C164.301 162.38 164.175 177.119 165.229 182.293C166.283 187.467 166.986 171.77 166.986 171.77C166.986 171.77 171.233 156.207 171.318 155.998C171.403 155.79 172.544 153.105 171.851 152.192C171.159 151.282 170.097 149.797 169.087 149.678C168.076 149.561 162.7 150.56 162.7 150.56"
                fill="#3A343F"
        />
    </g>
    <path
            d="M119.354 383.15C119.856 383.997 120.48 384.965 121.098 385.86C121.718 386.771 122.362 387.671 123.029 388.558C124.363 390.33 125.75 392.074 127.223 393.747C130.139 397.116 133.301 400.277 136.674 403.188C140.044 406.104 143.625 408.774 147.385 411.156C151.155 413.521 155.115 415.572 159.216 417.289C161.253 418.184 163.364 418.885 165.462 419.612L168.66 420.551C169.722 420.876 170.82 421.074 171.897 421.341L173.521 421.72L175.165 422.005C176.262 422.18 177.352 422.409 178.455 422.544C180.666 422.786 182.875 423.08 185.103 423.136C187.325 423.309 189.556 423.228 191.785 423.218C192.9 423.223 194.011 423.083 195.127 423.025C196.237 422.925 197.358 422.92 198.464 422.745C200.677 422.435 202.906 422.239 205.099 421.758L208.4 421.133C209.5 420.889 210.598 420.612 211.696 420.352C216.099 419.333 220.416 418.003 224.699 416.594C228.939 415.066 233.163 413.482 237.229 411.548C239.293 410.65 241.268 409.569 243.284 408.575C245.241 407.472 247.244 406.445 249.145 405.247C253.013 402.961 256.711 400.404 260.274 397.681C263.849 394.97 267.245 392.034 270.461 388.914C273.683 385.799 276.732 382.509 279.582 379.057C285.263 372.138 290.172 364.585 294.127 356.578C296.087 352.571 297.851 348.46 299.259 344.26C300.642 340.034 301.863 335.709 302.75 331.369C303.625 327.024 304.169 322.633 304.207 318.278C304.24 313.927 303.745 309.608 302.491 305.552C301.216 301.507 299.136 297.777 296.335 294.622L295.287 293.44C294.917 293.102 294.566 292.743 294.189 292.418C293.422 291.782 292.627 291.177 291.762 290.684C290.047 289.679 288.161 288.945 286.158 288.566C282.16 287.77 277.846 288.189 273.765 289.395C269.697 290.61 265.745 292.59 262.603 295.242C261.818 295.901 261.107 296.613 260.512 297.345C259.938 298.065 259.433 298.86 258.935 299.821C257.942 301.683 257.063 303.755 256.201 305.824L251.081 318.522C247.537 327.006 243.633 335.534 237.898 343.189C236.446 345.086 234.89 346.927 233.161 348.64C232.271 349.477 231.391 350.324 230.419 351.089C229.95 351.486 229.465 351.869 228.96 352.23C228.462 352.594 227.949 352.981 227.426 353.248C223.327 355.704 218.972 357.626 214.543 359.205C210.103 360.771 205.558 361.94 200.972 362.762C198.679 363.176 196.371 363.491 194.06 363.71C191.744 363.934 189.438 364.074 187.096 364.058C186.86 364.058 186.67 363.865 186.673 363.634C186.673 363.415 186.842 363.237 187.055 363.217H187.073C189.328 362.993 191.595 362.614 193.824 362.157C196.058 361.701 198.269 361.16 200.454 360.542C204.822 359.301 209.077 357.735 213.14 355.831C217.192 353.914 221.086 351.704 224.622 349.068C225.092 348.755 225.471 348.422 225.915 348.129L226.562 347.679L227.175 347.173C228.006 346.522 228.778 345.778 229.555 345.048C231.076 343.538 232.484 341.88 233.81 340.148C239.073 333.136 242.884 324.924 246.352 316.597L251.469 303.902C252.364 301.764 253.262 299.623 254.416 297.452C254.967 296.387 255.675 295.23 256.529 294.169C257.376 293.13 258.296 292.219 259.266 291.403C263.144 288.151 267.589 285.962 272.305 284.536C277.017 283.153 282.119 282.603 287.169 283.595C289.685 284.073 292.147 285.014 294.384 286.328C295.51 286.977 296.551 287.757 297.544 288.586C298.033 289.008 298.487 289.463 298.957 289.903L300.19 291.281C303.466 294.968 305.918 299.387 307.38 304.045C308.824 308.715 309.362 313.559 309.326 318.313C309.285 323.075 308.696 327.771 307.772 332.363C306.831 336.958 305.572 341.425 304.117 345.867C302.622 350.316 300.778 354.613 298.729 358.805C294.594 367.173 289.48 375.042 283.552 382.26C280.58 385.863 277.399 389.295 274.037 392.545C270.682 395.799 267.135 398.865 263.408 401.693C259.689 404.533 255.832 407.197 251.802 409.582C249.82 410.831 247.737 411.904 245.698 413.05C243.6 414.088 241.543 415.209 239.396 416.144C235.167 418.156 230.781 419.803 226.382 421.387C221.94 422.849 217.467 424.227 212.914 425.28C211.775 425.547 210.647 425.834 209.503 426.086L206.03 426.747C203.727 427.245 201.367 427.461 199.03 427.784C197.863 427.967 196.676 427.977 195.499 428.082C194.319 428.145 193.142 428.288 191.957 428.285C189.589 428.3 187.219 428.382 184.852 428.201C182.48 428.138 180.125 427.83 177.768 427.568C176.591 427.421 175.426 427.182 174.257 426.993L172.502 426.688L170.768 426.287C169.617 426.002 168.447 425.786 167.311 425.44L163.897 424.438C161.656 423.665 159.404 422.913 157.234 421.959C152.863 420.131 148.652 417.945 144.651 415.435C140.66 412.91 136.874 410.083 133.317 407.007C129.757 403.933 126.427 400.605 123.355 397.055C121.806 395.293 120.341 393.455 118.928 391.576C118.22 390.635 117.535 389.679 116.868 388.7C116.191 387.711 115.57 386.763 114.909 385.644C114.193 384.437 114.603 382.883 115.822 382.174C117.04 381.464 118.607 381.871 119.323 383.079L119.364 383.148L119.354 383.15Z"
            fill="#262F6A"
    />
    <path
            d="M256.878 159.426C256.878 159.426 246.662 161.226 247.045 170.524C247.045 170.524 262.134 177.503 272.311 188.39L274.766 192.229L277.61 188.423C277.61 188.423 295.1 177.923 292.976 168.706C290.852 159.492 276.553 157.552 276.553 157.552C270.726 150.99 259.977 153.746 256.876 159.423L256.878 159.426Z"
            fill="#FFEEE5"
    />
    <path
            d="M275.419 194.683C275.178 194.747 274.926 194.775 274.672 194.764C273.829 194.734 273.056 194.294 272.605 193.59L270.276 189.949C260.573 179.662 246.108 172.891 245.961 172.822C245.095 172.421 244.528 171.574 244.489 170.628C244.146 162.289 250.845 158.368 255.274 157.188C257.485 154.066 261.543 151.803 265.954 151.308C270.51 150.797 274.783 152.208 277.827 155.195C281.302 155.841 293.303 158.729 295.473 168.144C297.805 178.263 282.657 188.291 279.376 190.328L276.824 193.74C276.473 194.208 275.975 194.536 275.421 194.68L275.419 194.683ZM249.657 168.973C253.838 171.081 265.593 177.475 274.188 186.666C274.293 186.781 274.388 186.903 274.472 187.033L274.931 187.752L275.557 186.916C275.755 186.651 276.004 186.427 276.286 186.257C280.412 183.773 291.877 175.324 290.482 169.276C288.782 161.895 276.329 160.084 276.204 160.067C275.598 159.983 275.039 159.685 274.634 159.23C271.969 156.23 268.412 156.136 266.529 156.347C263.302 156.708 260.33 158.432 259.127 160.634C258.758 161.31 258.101 161.788 257.334 161.923C256.565 162.065 250.363 163.39 249.657 168.976V168.973Z"
            fill="#262F6A"
    />
    <path
            d="M274.134 192.677C272.836 193.018 271.477 192.298 271.054 191.017C262.89 166.395 255.742 161.701 255.672 161.663C254.426 161.002 253.957 159.466 254.621 158.231C255.288 156.995 256.837 156.53 258.083 157.188C258.968 157.659 266.999 162.551 275.914 189.433C276.355 190.762 275.624 192.196 274.283 192.634C274.234 192.649 274.186 192.664 274.134 192.677Z"
            fill="#262F6A"
    />
    <path
            d="M278.261 190.877C277.807 190.996 277.315 190.991 276.835 190.841C275.489 190.417 274.745 188.99 275.173 187.655C280.457 171.175 274.332 158.816 274.27 158.694C273.634 157.443 274.142 155.917 275.404 155.287C276.666 154.656 278.205 155.159 278.841 156.41C279.133 156.988 285.961 170.76 280.052 189.191C279.777 190.051 279.082 190.661 278.264 190.877H278.261Z"
            fill="#262F6A"
    />
    <g opacity="0.3">
        <path
                d="M275.371 189.73C278.8 180.897 280.393 171.007 276.038 157.689C276.038 157.689 272.457 154.01 263.911 154.292C274.045 157.72 276.407 175.624 275.833 189.608"
                fill="#3A343F"
        />
    </g>
    <g opacity="0.3">
        <path
                d="M280.326 178.751C286.202 175.985 288.713 170.824 286.128 162.042C286.128 162.042 294.258 164.831 292.181 171.932C290.103 179.034 281.796 184.269 281.796 184.269L280.867 184.51"
                fill="#3A343F"
        />
    </g>
    <g opacity="0.3">
        <path
                d="M249.035 164.757C256.763 164.394 263.347 174.129 269.715 185.792C267.246 176.827 263.986 168.096 255.547 160.903"
                fill="#3A343F"
        />
    </g>
    <path
            d="M125.558 287.032C125.017 286.341 122.244 287.571 119.369 289.783C116.491 291.995 114.601 294.35 115.142 295.041C115.683 295.733 118.456 294.502 121.331 292.29C124.209 290.078 126.099 287.724 125.558 287.032Z"
            fill="white"
    />
    <path
            d="M54.4712 164.455C54.4712 164.455 62.7993 191.444 33.7935 222.762C4.78763 254.081 -9.30104 304.464 18.743 351.206C46.787 397.947 94.1981 411.72 176.468 357.16C255.311 304.873 236.583 254.252 222.335 234.59C208.087 214.931 173.49 170.567 105.714 174.088C101.144 163.689 93.6364 156.959 81.5534 155.955C81.5534 155.955 88.3528 167.424 80.2684 184.187C72.5996 175.029 64.3869 167.386 54.4712 164.455Z"
            fill="#D79D77"
    />
    <g opacity="0.3">
        <path
                d="M81.7607 156.354C81.6248 156.09 81.5479 155.958 81.5479 155.958C92.8742 156.891 100.181 162.868 104.814 172.174C105.604 176.214 101.849 177.48 99.1555 177.623C96.9344 167.631 88.7551 159.258 81.7607 156.354Z"
                fill="#3A343F"
        />
    </g>
    <path
            d="M176.467 357.165C129.102 388.573 93.2947 397.337 66.0791 390.193C92.0866 393.541 125.235 383.577 167.649 355.449C246.488 303.162 227.759 252.536 213.511 232.877C202.121 217.164 177.729 185.662 133.773 175.454C183.321 183.211 210.203 217.853 222.335 234.59C236.582 254.249 255.311 304.876 176.465 357.165H176.467Z"
            fill="#BE8560"
    />
    <g opacity="0.6">
        <path
                d="M66.8689 170.941C64.3887 169.497 61.8034 168.337 59.0846 167.531C59.0846 167.531 67.4152 194.523 38.4094 225.839C9.40359 257.155 -4.68764 307.538 23.3589 354.285C30.3712 365.97 38.5967 375.601 48.2738 382.608C36.5653 375.467 26.8471 364.712 18.7448 351.208C-9.30179 304.461 4.78688 254.079 33.7953 222.763C62.8011 191.446 54.4705 164.455 54.4705 164.455C58.9128 165.769 63.0063 168.027 66.8664 170.941H66.8689Z"
                fill="white"
        />
    </g>
    <g opacity="0.6">
        <path
                d="M97.1068 162.034C93.9623 160.407 90.333 159.377 86.1626 159.034C86.1626 159.034 92.9646 170.498 84.8853 187.261C83.5875 185.71 82.2717 184.205 80.9277 182.759C87.9657 166.779 81.5484 155.958 81.5484 155.958C87.9323 156.487 93.0389 158.612 97.1068 162.034Z"
                fill="white"
        />
    </g>
    <path
            d="M166.269 345.279C68.4511 415.778 16.9722 348.137 27.547 301.494C38.1219 254.852 95.2461 253.804 95.2461 253.804C95.2461 253.804 109.109 212.547 155.381 206.544C205.557 200.035 253.925 286.559 166.269 345.276V345.279Z"
            fill="#FFEEE5"
    />
    <path
            d="M36.0219 347.626C36.0219 347.626 33.2313 324.252 53.7757 303.823C74.3201 283.394 92.6254 291.149 98.3604 298.352C104.093 305.555 112.488 316.681 95.9213 337.692C79.3575 358.704 87.0956 375.736 87.0956 375.736C65.7792 374.678 48.1664 366.451 36.0219 347.626Z"
            fill="#A96B3F"
    />
    <path
            d="M200.126 226.757C166.019 214.853 117.992 244.186 135.628 275.756C135.628 275.756 144.472 289.839 160.302 285.288C176.132 280.737 201.516 270.918 213.007 284.421C217.08 261.531 212.822 242.292 200.126 226.757Z"
            fill="#A96B3F"
    />
    <path
            d="M129.752 299.471C128.734 301.207 127.11 302.519 125.202 303.195C109.326 308.822 101.239 301.688 116.564 288.942C129.778 276.756 140.083 281.859 129.752 299.471Z"
            fill="#262F6A"
    />
    <path
            d="M117.44 317.164C118.922 317.245 120.428 317.039 121.926 316.66C123.421 316.32 124.893 315.811 126.335 315.257C129.218 314.133 131.975 312.707 134.483 311.016C136.989 309.323 139.233 307.332 140.921 304.985C142.627 302.644 143.665 299.905 143.971 296.719V296.702C144.017 296.226 144.443 295.878 144.922 295.924C145.271 295.957 145.551 296.188 145.661 296.493C146.264 298.169 146.441 300.017 146.284 301.863C146.092 303.701 145.556 305.532 144.709 307.192C143.014 310.525 140.344 313.21 137.366 315.204C134.378 317.207 131.064 318.626 127.592 319.409C125.853 319.798 124.065 319.994 122.257 319.981C120.461 319.928 118.574 319.696 116.881 318.761C116.465 318.532 116.314 318.011 116.547 317.596C116.714 317.301 117.03 317.141 117.348 317.159L117.442 317.164H117.44Z"
            fill="#262F6A"
    />
    <path
            d="M137.824 314.822C136.705 315.305 135.366 314.939 134.669 313.897C129.065 305.517 124.999 301.733 124.958 301.695C123.922 300.742 123.863 299.138 124.825 298.11C125.787 297.083 127.405 297.025 128.441 297.978C128.623 298.146 132.997 302.214 138.934 311.093C139.714 312.26 139.393 313.833 138.216 314.606C138.09 314.688 137.96 314.759 137.824 314.817V314.822Z"
            fill="#262F6A"
    />
    <path
            d="M135.1 383.005C109.51 394.088 87.0164 397.533 67.9083 393.249C47.2741 388.624 29.9922 374.915 16.5447 352.5C3.23062 330.309 -1.67848 305.514 2.35089 280.796C5.90064 259.016 16.3985 237.799 31.9107 221.046C59.6059 191.144 52.1063 165.452 52.0268 165.195C51.7498 164.3 51.9935 163.329 52.6577 162.665C53.322 162.001 54.3018 161.755 55.2046 162.022C65.2537 164.991 73.3201 172.426 79.5245 179.413C84.4336 166.09 79.4039 157.331 79.3475 157.237C78.8628 156.421 78.8781 155.403 79.3885 154.6C79.8964 153.799 80.8146 153.344 81.7687 153.423C93.3772 154.389 101.967 160.461 107.322 171.472C177.694 168.63 212.812 217.095 224.415 233.108C229.637 240.314 241.274 259.871 236.549 285.746C231.776 311.883 212.04 336.619 177.891 359.266C162.805 369.27 148.526 377.188 135.1 383.003V383.005ZM57.831 168.416C58.9878 177.76 58.5312 199.804 35.6785 224.479C10.4866 251.681 -8.49071 300.854 20.9409 349.909C33.8215 371.378 49.5543 383.938 69.0368 388.304C96.7474 394.513 132.414 383.328 175.044 355.053C207.995 333.2 226.995 309.58 231.512 284.846C235.888 260.883 225.1 242.754 220.257 236.073C208.962 220.484 174.585 173.051 105.847 176.623C104.783 176.679 103.796 176.074 103.367 175.103C99.4764 166.252 93.6286 160.994 85.5647 159.133C87.0831 164.307 88.1988 173.621 82.5741 185.281C82.1971 186.061 81.4455 186.598 80.5812 186.705C79.7168 186.811 78.855 186.473 78.2985 185.807C70.863 176.926 64.3894 171.399 57.831 168.416Z"
            fill="#262F6A"
    />
    <path
            d="M130.83 368.342C91.5106 385.37 65.8981 376.206 52.7225 367.62C30.9957 353.461 19.7873 326.08 25.4659 301.034C29.9518 281.248 43.4788 266.438 64.5798 258.195C77.6374 253.097 89.646 251.994 93.7395 251.757C95.0245 248.516 98.8025 240.072 106.32 231.079C115.002 220.69 130.514 207.64 155.103 204.451C178.369 201.433 202.412 217.965 212.271 243.761C216.596 255.075 220.102 273.066 212.246 294.525C205.002 314.306 189.944 331.964 167.494 347.011C154.162 356.616 141.943 363.529 130.827 368.342H130.83ZM63.3333 263.283C44.9792 271.231 33.6452 284.231 29.6261 301.96C24.4143 324.954 35.1123 351.084 55.0642 364.086C67.4601 372.166 91.6286 380.707 129.124 364.47C139.963 359.777 151.91 353.013 165.014 343.571C165.034 343.558 165.055 343.543 165.073 343.527C186.782 328.987 201.304 312.013 208.237 293.079C215.647 272.84 212.353 255.902 208.283 245.254C199.116 221.27 176.981 205.873 155.655 208.639C111.221 214.403 97.3995 254.071 97.2662 254.47C96.9815 255.32 96.1864 255.897 95.2835 255.914C95.1425 255.917 81.0999 256.255 66.0212 262.167C65.1081 262.525 64.2079 262.896 63.3281 263.278L63.3333 263.283Z"
            fill="#262F6A"
    />
    <path
            d="M68.0671 334.657C66.1102 331.283 64.9586 327.286 65.2458 323.035C65.3843 320.919 65.9409 318.761 66.9437 316.762C67.9543 314.772 69.4188 312.964 71.1963 311.568C74.7537 308.718 79.373 307.632 83.6024 308.044C87.8472 308.458 91.851 310.335 94.562 313.279C94.8877 313.632 94.8621 314.179 94.5056 314.502C94.2517 314.733 93.8951 314.787 93.595 314.667L93.5797 314.66C90.1659 313.31 86.7469 312.725 83.4921 312.982C80.2553 313.221 77.2108 314.286 74.9307 316.162C72.6351 318.018 71.0808 320.635 70.3165 323.77C69.9318 325.333 69.7369 327.006 69.6471 328.745C69.5548 330.492 69.6651 332.284 69.6984 334.166V334.207C69.7087 334.685 69.3239 335.081 68.8392 335.089C68.5109 335.094 68.2185 334.918 68.0646 334.654L68.0671 334.657Z"
            fill="#262F6A"
    />
    <path
            d="M151.792 273.364C150.801 271.64 150.035 269.761 149.57 267.755C149.127 265.749 148.97 263.619 149.234 261.46C149.488 259.304 150.204 257.133 151.368 255.18C152.538 253.232 154.156 251.521 156.049 250.242C159.835 247.636 164.577 246.833 168.861 247.596C173.152 248.358 177.081 250.774 179.323 254.178C179.587 254.577 179.471 255.114 179.069 255.376C178.779 255.564 178.417 255.559 178.14 255.391L178.127 255.383C174.955 253.476 171.605 252.518 168.33 252.505C165.075 252.48 161.9 253.347 159.435 255.093C156.957 256.822 155.187 259.345 154.264 262.439C153.8 263.985 153.543 265.655 153.415 267.404C153.295 269.159 153.384 270.969 153.425 272.873V272.914C153.436 273.392 153.053 273.789 152.571 273.799C152.24 273.806 151.948 273.629 151.794 273.362L151.792 273.364Z"
            fill="#262F6A"
    />
    <path
            className={"fill-current"}
    d="M174.654 495.153L181.443 457.059L187.956 458.2L182.105 491.027L189.605 492.341L188.666 497.61L174.654 495.156V495.153Z"
    />
    <path
            className={"fill-current"}
    d="M200.172 499.402C198.471 499.227 197.089 498.705 196.025 497.846C194.96 496.984 194.211 495.802 193.778 494.302C193.344 492.802 193.234 491.037 193.447 489.011L194.416 479.794C194.637 477.704 195.112 475.985 195.845 474.635C196.579 473.288 197.569 472.301 198.815 471.678C200.062 471.055 201.511 470.829 203.157 470.999C204.912 471.18 206.292 471.709 207.302 472.581C208.31 473.453 208.998 474.645 209.364 476.156C209.729 477.666 209.803 479.466 209.582 481.556L209.077 486.354L199.828 485.398L199.269 490.717C199.187 491.507 199.19 492.166 199.285 492.687C199.377 493.208 199.546 493.587 199.79 493.821C200.033 494.055 200.354 494.192 200.754 494.233C201.126 494.271 201.462 494.203 201.762 494.025C202.062 493.849 202.303 493.544 202.483 493.114C202.662 492.685 202.791 492.108 202.868 491.378L203.142 488.764L208.723 489.341L208.482 491.622C208.19 494.408 207.328 496.465 205.899 497.79C204.471 499.115 202.56 499.654 200.169 499.407L200.172 499.402ZM200.192 481.976L203.819 482.349L204.104 479.641C204.186 478.851 204.189 478.202 204.106 477.696C204.024 477.193 203.855 476.822 203.599 476.588C203.342 476.354 203.001 476.214 202.575 476.171C202.178 476.13 201.839 476.207 201.565 476.402C201.288 476.598 201.054 476.967 200.864 477.506C200.672 478.047 200.523 478.823 200.418 479.837L200.192 481.976Z"
    />
    <path
            className={"fill-current"}
    d="M220.227 500.711C218.516 500.663 217.1 500.233 215.974 499.42C214.848 498.609 214.017 497.477 213.486 496.028C212.953 494.579 212.714 492.87 212.771 490.895L213.038 481.587C213.097 479.52 213.433 477.783 214.048 476.385C214.664 474.986 215.556 473.918 216.726 473.186C217.895 472.454 219.337 472.113 221.045 472.161C222.702 472.207 224.082 472.558 225.185 473.209C226.288 473.86 227.095 474.816 227.608 476.072C228.119 477.328 228.35 478.897 228.296 480.773L228.221 483.399L222.453 483.237L222.535 480.42C222.558 479.593 222.517 478.948 222.409 478.482C222.302 478.017 222.125 477.686 221.876 477.488C221.627 477.29 221.304 477.185 220.904 477.173C220.504 477.163 220.178 477.272 219.932 477.503C219.686 477.735 219.498 478.129 219.378 478.683C219.255 479.237 219.18 480.008 219.152 480.994L218.842 491.83C218.798 493.328 218.911 494.34 219.175 494.874C219.442 495.408 219.855 495.682 220.414 495.698C220.84 495.71 221.178 495.609 221.425 495.392C221.671 495.176 221.855 494.831 221.976 494.358C222.097 493.882 222.168 493.28 222.189 492.547L222.286 489.207L228.055 489.369L227.967 492.377C227.914 494.223 227.588 495.782 226.99 497.055C226.393 498.329 225.523 499.267 224.382 499.872C223.243 500.478 221.858 500.757 220.229 500.711H220.227Z"
    />
    <path
            className={"fill-current"}
    d="M239.722 500.333C238.119 500.396 236.852 500.152 235.921 499.6C234.99 499.048 234.328 498.222 233.936 497.121C233.544 496.023 233.315 494.678 233.251 493.086L232.618 477.435L230.335 477.526L230.143 472.802L232.425 472.71L232.087 464.358L238.214 464.114L238.553 472.464L241.915 472.329L242.108 477.053L238.745 477.188L239.353 492.171C239.389 493.03 239.591 493.636 239.969 493.986C240.343 494.337 240.851 494.5 241.492 494.475C241.813 494.462 242.118 494.426 242.41 494.365C242.703 494.307 242.967 494.256 243.205 494.213L243.434 499.844C243.062 499.923 242.531 500.015 241.841 500.124C241.148 500.231 240.443 500.299 239.722 500.327V500.333Z"
    />
    <path
            className={"fill-current"}
    d="M252.162 499.633C251.233 499.74 250.423 499.544 249.733 499.046C249.043 498.548 248.496 497.841 248.094 496.926C247.691 496.01 247.424 494.983 247.291 493.844L244.777 472.21L250.789 471.523L253.182 492.115C253.27 492.875 253.444 493.44 253.703 493.811C253.962 494.182 254.37 494.335 254.926 494.271C255.244 494.236 255.57 494.093 255.906 493.847C256.24 493.6 256.576 493.313 256.917 492.987L254.375 471.116L260.387 470.43L263.572 497.854L257.561 498.54L257.263 495.977C256.573 496.987 255.804 497.818 254.952 498.477C254.101 499.135 253.169 499.522 252.162 499.636V499.633Z"
    />
    <path
            className={"fill-current"}
    d="M269.533 496.834L264.129 469.754L270.066 468.589L270.936 472.947C271.377 471.206 271.898 469.878 272.49 468.966C273.085 468.053 273.893 467.499 274.914 467.298C275.096 467.262 275.263 467.237 275.409 467.224C275.555 467.211 275.701 467.224 275.845 467.26L277.266 474.381C276.945 474.282 276.591 474.213 276.204 474.175C275.814 474.137 275.424 474.157 275.032 474.234C274.298 474.379 273.675 474.737 273.162 475.307C272.649 475.879 272.216 476.636 271.859 477.582L275.468 495.667L269.53 496.832L269.533 496.834Z"
    />
    <path
            className={"fill-current"}
    d="M292.899 491.965C291.255 492.428 289.775 492.456 288.464 492.049C287.154 491.642 286.015 490.821 285.048 489.585C284.081 488.352 283.319 486.755 282.755 484.795L280.198 475.883C279.618 473.862 279.413 472.09 279.588 470.57C279.762 469.049 280.311 467.768 281.234 466.728C282.158 465.69 283.417 464.946 285.01 464.496C286.705 464.018 288.185 463.997 289.452 464.435C290.716 464.872 291.801 465.726 292.707 466.992C293.612 468.261 294.356 469.903 294.936 471.925L296.267 476.565L287.323 479.087L288.8 484.233C289.021 484.998 289.27 485.606 289.552 486.056C289.834 486.506 290.132 486.796 290.447 486.921C290.76 487.048 291.111 487.055 291.496 486.946C291.855 486.844 292.142 486.656 292.355 486.382C292.568 486.107 292.676 485.738 292.684 485.27C292.689 484.805 292.591 484.22 292.389 483.516L291.663 480.989L297.059 479.466L297.693 481.67C298.467 484.365 298.439 486.593 297.611 488.347C296.782 490.104 295.21 491.309 292.897 491.96L292.899 491.965ZM286.379 475.779L289.888 474.79L289.136 472.171C288.918 471.406 288.675 470.803 288.411 470.366C288.146 469.929 287.849 469.647 287.523 469.525C287.197 469.403 286.828 469.398 286.415 469.514C286.03 469.624 285.746 469.82 285.564 470.102C285.381 470.387 285.302 470.814 285.328 471.386C285.353 471.958 285.507 472.733 285.787 473.715L286.379 475.782V475.779Z"
    />
    <path
            className={"fill-current"}
    d="M316.8 483.511L300.195 448.498L306.5 445.45L320.896 465.642L313.956 441.844L320.042 438.9L337.655 473.425L333.333 475.515L321.268 452.177L329.155 477.536L325.444 479.331L309.872 457.476L321.158 481.404L316.8 483.511Z"
    />
    <path
            className={"fill-current"}
    d="M348.051 467.389C347.14 467.991 346.168 468.233 345.14 468.108C344.108 467.986 343.142 467.613 342.239 466.985C341.336 466.357 340.579 465.594 339.974 464.694C339.012 463.265 338.435 461.905 338.24 460.616C338.048 459.327 338.107 458.101 338.417 456.939C338.727 455.777 339.189 454.648 339.802 453.555C340.415 452.462 341.054 451.407 341.721 450.392L340.277 448.246C339.938 447.743 339.61 447.328 339.294 447C338.979 446.675 338.658 446.474 338.335 446.4C338.012 446.327 337.673 446.408 337.317 446.642C336.96 446.878 336.747 447.143 336.673 447.44C336.599 447.738 336.635 448.078 336.781 448.46C336.924 448.844 337.122 449.24 337.365 449.652L338.335 451.307L333.408 454.221C331.7 451.447 330.951 449.055 331.153 447.044C331.359 445.032 332.549 443.309 334.726 441.867C336.681 440.573 338.558 440.26 340.356 440.926C342.154 441.595 343.757 442.973 345.165 445.066L352.357 455.752C352.962 456.652 353.519 457.443 354.024 458.121C354.529 458.8 354.994 459.395 355.414 459.901C355.835 460.407 356.202 460.844 356.515 461.213L351.98 464.211C351.521 463.672 351.016 463.09 350.464 462.459C349.913 461.828 349.533 461.409 349.328 461.2C349.746 462.301 349.9 463.435 349.787 464.602C349.672 465.769 349.092 466.697 348.048 467.389H348.051ZM347.025 461.925C347.268 461.762 347.458 461.544 347.592 461.264C347.725 460.984 347.804 460.684 347.827 460.361C347.851 460.039 347.856 459.749 347.843 459.489L343.59 453.174C343.354 453.827 343.149 454.45 342.972 455.047C342.795 455.645 342.695 456.235 342.675 456.825C342.654 457.412 342.723 457.997 342.89 458.577C343.054 459.156 343.344 459.751 343.752 460.359C344.285 461.152 344.845 461.694 345.422 461.981C346.001 462.268 346.535 462.25 347.022 461.928L347.025 461.925Z"
    />
    <path
            className={"fill-current"}
    d="M365.603 454.646C364.259 455.777 362.738 456.08 361.037 455.549C359.337 455.017 357.477 453.575 355.459 451.224L348.841 443.512C347.677 442.155 346.784 440.817 346.161 439.5C345.54 438.186 345.271 436.96 345.351 435.826C345.43 434.692 345.948 433.723 346.905 432.917C347.536 432.386 348.272 432.038 349.111 431.873C349.952 431.707 350.814 431.672 351.699 431.761L343.332 422.01L347.941 418.123L373.225 447.59L368.616 451.478L367.275 449.914C367.265 450.926 367.131 451.844 366.875 452.665C366.616 453.489 366.193 454.15 365.603 454.646ZM364.343 449.436C364.546 449.266 364.728 449.017 364.89 448.694C365.051 448.371 365.179 448 365.277 447.583L353.789 434.196C353.44 434.24 353.096 434.311 352.76 434.407C352.422 434.504 352.132 434.657 351.886 434.863C351.357 435.31 351.214 435.89 351.458 436.602C351.701 437.316 352.147 438.048 352.791 438.801L360.409 447.677C360.888 448.236 361.36 448.704 361.827 449.083C362.294 449.464 362.738 449.696 363.158 449.777C363.579 449.861 363.974 449.746 364.341 449.439L364.343 449.436Z"
    />
    <path
            className={"fill-current"}
    d="M383.417 437.921C382.255 439.165 381.006 439.95 379.672 440.278C378.339 440.606 376.936 440.492 375.463 439.935C373.991 439.378 372.501 438.41 370.993 437.024L364.134 430.731C362.578 429.305 361.477 427.896 360.826 426.505C360.177 425.117 359.974 423.739 360.218 422.376C360.464 421.014 361.146 419.73 362.272 418.524C363.47 417.243 364.724 416.462 366.035 416.183C367.346 415.906 368.72 416.073 370.157 416.691C371.596 417.307 373.091 418.329 374.648 419.755L378.218 423.032L371.901 429.795L375.861 433.429C376.451 433.97 376.984 434.359 377.461 434.598C377.938 434.837 378.344 434.931 378.68 434.875C379.016 434.822 379.318 434.649 379.59 434.357C379.844 434.085 379.99 433.777 380.029 433.431C380.067 433.085 379.965 432.714 379.726 432.315C379.488 431.916 379.095 431.466 378.554 430.97L376.61 429.185L380.421 425.104L382.119 426.661C384.194 428.565 385.338 430.479 385.551 432.407C385.764 434.334 385.053 436.172 383.42 437.921H383.417ZM369.356 427.456L371.834 424.804L369.818 422.956C369.228 422.417 368.708 422.025 368.251 421.789C367.795 421.55 367.394 421.464 367.051 421.527C366.707 421.591 366.389 421.779 366.099 422.089C365.827 422.381 365.686 422.694 365.681 423.03C365.673 423.365 365.83 423.772 366.153 424.248C366.474 424.723 367.012 425.308 367.766 425.999L369.356 427.459V427.456Z"
    />
    <path
            className={"fill-current"}
    d="M399.104 417.919L366.256 397.032L373.894 385.228L378.516 388.167L374.448 394.454L383.166 399.997L386.303 395.148L390.966 398.113L387.829 402.962L398.129 409.511L402.241 403.157L406.783 406.046L399.101 417.917L399.104 417.919Z"
    />
    <path
            className={"fill-current"}
    d="M411.887 397.452C411.405 398.426 410.684 399.117 409.733 399.524C408.779 399.931 407.755 400.086 406.655 399.994C405.557 399.903 404.516 399.615 403.536 399.137C401.979 398.38 400.792 397.49 399.974 396.47C399.155 395.451 398.586 394.363 398.265 393.203C397.945 392.044 397.773 390.839 397.75 389.588C397.727 388.337 397.745 387.106 397.809 385.899L395.475 384.762C394.928 384.495 394.433 384.299 393.995 384.175C393.556 384.05 393.179 384.035 392.861 384.131C392.546 384.228 392.292 384.467 392.105 384.846C391.915 385.227 391.866 385.563 391.953 385.855C392.04 386.15 392.243 386.425 392.564 386.684C392.884 386.944 393.251 387.19 393.674 387.424L395.352 388.375L392.564 393.348C389.683 391.797 387.821 390.101 386.98 388.258C386.139 386.417 386.295 384.332 387.452 382.003C388.488 379.911 389.955 378.708 391.848 378.39C393.741 378.073 395.826 378.469 398.104 379.58L409.735 385.248C410.715 385.726 411.597 386.132 412.377 386.468C413.159 386.804 413.86 387.088 414.48 387.315C415.101 387.544 415.637 387.739 416.094 387.902L413.688 392.751C413.018 392.514 412.285 392.26 411.49 391.988C410.692 391.718 410.153 391.543 409.871 391.464C410.792 392.207 411.497 393.112 411.987 394.177C412.48 395.242 412.446 396.336 411.892 397.452H411.887ZM408.232 393.239C408.361 392.977 408.414 392.692 408.386 392.385C408.361 392.077 408.276 391.777 408.132 391.487C407.991 391.197 407.848 390.943 407.704 390.724L400.83 387.373C400.958 388.055 401.094 388.698 401.243 389.3C401.392 389.906 401.605 390.465 401.884 390.986C402.164 391.505 402.52 391.975 402.956 392.395C403.392 392.814 403.944 393.185 404.606 393.508C405.47 393.93 406.227 394.121 406.87 394.08C407.517 394.04 407.968 393.76 408.227 393.236L408.232 393.239Z"
    />
    <path
            className={"fill-current"}
    d="M421.082 376.283C420.403 378.152 419.29 379.491 417.748 380.305C416.207 381.119 414.165 381.452 411.623 381.302L411.072 376.629C412.477 376.71 413.629 376.616 414.529 376.346C415.43 376.077 416.007 375.594 416.261 374.897C416.453 374.373 416.45 373.931 416.261 373.565C416.068 373.201 415.717 372.927 415.204 372.744C414.478 372.484 413.757 372.451 413.037 372.644C412.318 372.838 411.259 373.262 409.859 373.916L407.04 375.187C405.57 375.843 404.185 376.298 402.882 376.55C401.579 376.801 400.128 376.641 398.525 376.067C397.106 375.558 395.973 374.823 395.129 373.857C394.285 372.894 393.746 371.816 393.518 370.618C393.287 369.423 393.38 368.254 393.798 367.107C394.441 365.337 395.583 364.107 397.219 363.41C398.856 362.716 400.789 362.54 403.018 362.889L403.677 367.264C402.959 367.175 402.259 367.153 401.579 367.191C400.9 367.229 400.294 367.371 399.761 367.615C399.227 367.862 398.873 368.22 398.702 368.693C398.537 369.141 398.573 369.563 398.804 369.954C399.038 370.349 399.41 370.636 399.922 370.819C400.466 371.015 401.125 370.989 401.897 370.745C402.669 370.501 403.629 370.12 404.773 369.599L407.681 368.36C408.533 367.989 409.42 367.646 410.338 367.325C411.257 367.008 412.216 366.814 413.211 366.748C414.209 366.682 415.265 366.85 416.384 367.249C417.894 367.791 419.069 368.548 419.908 369.525C420.746 370.501 421.259 371.579 421.444 372.756C421.629 373.936 421.508 375.111 421.082 376.28V376.283Z"
    />
    <path
            className={"fill-current"}
    d="M432.175 366.161L427.218 364.948C427.428 364.099 427.538 363.389 427.548 362.82C427.559 362.25 427.433 361.79 427.174 361.439C426.915 361.088 426.487 360.842 425.894 360.697C425.427 360.582 424.766 360.511 423.914 360.478C423.063 360.448 422.111 360.412 421.062 360.374L396.968 359.881L398.342 354.366L415.658 355.574L399.63 349.197L401.013 343.642L427.602 355.632C429.272 356.367 430.508 357.211 431.316 358.157C432.122 359.105 432.601 360.135 432.755 361.251C432.906 362.367 432.817 363.593 432.486 364.93L432.178 366.163L432.175 366.161Z"
    />
</svg>