<?xml version="1.0" encoding="UTF-8"?><svg id="Layer_1" xmlns="http://www.w3.org/2000/svg" viewBox="0 0 4000 4000"><defs><style>.cls-1{opacity:.5;}.cls-1,.cls-2,.cls-3,.cls-4,.cls-5,.cls-6,.cls-7,.cls-8,.cls-9{stroke-width:0px;}.cls-1,.cls-5{fill:#fefafb;}.cls-2{fill:#d3a17f;}.cls-3{opacity:.3;}.cls-3,.cls-7{fill:#fff;}.cls-4{fill:#ecc18e;}.cls-10{stroke-linejoin:round;}.cls-10,.cls-11{fill:none;stroke:#6b184e;stroke-linecap:round;stroke-width:32px;}.cls-11{stroke-miterlimit:10;}.cls-6{fill:#707169;}.cls-8,.cls-9{fill:#6b184e;}.cls-9{opacity:.35;}</style></defs><ellipse class="cls-9" cx="2000" cy="3536.53" rx="850.85" ry="75.08"/><path class="cls-4" d="M2655.72,2600.78c-.4,11.48-1.28,22.88-2.64,34.16-3.76,31.64-11.16,62.6-21.96,92.24-37.44,102.84-115.32,190-221.16,237.16l-5.92,2.64c-119.96,53.52-247.92,81.72-376.36,84.76-16.96.4-33.92.36-50.92-.12-128.48-3.64-256.44-32.48-376.16-86.64-106-47.88-183.68-136-220.4-239.64-3.6-10.08-6.8-20.36-9.52-30.72-5.36-19.64-9.2-39.72-11.52-60.12-1.4-12.12-2.28-24.32-2.56-36.6-.08-3.36-.12-6.68-.12-10.04,0-30.76,3.44-61.88,10.64-92.92,25.44-109.76,58.48-208.6,88.32-286.32,17.16-44.68,33.24-82.44,46.12-111.24,1.04-2.28,2.04-4.48,3-6.64,10.48-23.08,18.56-39.72,23.08-48.76,2.56-5.16,3.96-7.88,3.96-7.88h949.56s1.6,3.04,4.48,8.88c4.96,10,13.8,28.24,25.08,53.36.96,2.16,1.96,4.36,3,6.64,14.72,33.12,33.12,76.96,52.4,128.92,27.24,73.32,56.24,162.84,79.12,261.16,8.4,36,11.76,72.2,10.48,107.72Z"/><path class="cls-9" d="M2648.04,2600.78c-1.52,43.56-9.96,86.16-24.6,126.4-37.44,102.84-115.32,190-221.16,237.16l-5.92,2.64c-119.96,53.52-247.92,81.72-376.36,84.76-9.52-12.16-18.2-26.72-25.48-42.76-7.28,16-15.92,30.52-25.44,42.64-128.48-3.64-256.44-32.48-376.16-86.64-106-47.88-183.68-136-220.4-239.64-14.44-40.6-22.52-83.56-23.6-127.44,2.52-.84,5.08-1.64,7.64-2.4-.04-2.56-.08-5.08-.08-7.64,0-30.76,3.44-61.88,10.64-92.92,25.44-109.76,58.48-208.6,88.32-286.32,17.16-44.68,33.24-82.44,46.12-111.24,1.04-2.28,2.04-4.48,3-6.64,10.48-23.08,18.56-39.72,23.08-48.76,2.56-5.16,3.96-7.88,3.96-7.88h36.92l.08,3.56,4.24,186.04s5.68,210.08-94.24,363.32c-1.36,2.12-2.76,4.24-4.2,6.32,113.16,17.52,79.32,50.08,431.48,159.32,42.72,13.24,71.2,36.76,88.64,65.48,17.4-28.72,45.88-52.24,88.6-65.48,362.16-112.32,316.08-143.6,441.52-160.76-1.12-1.6-2.16-3.24-3.24-4.88-99.92-153.24-94.24-363.32-94.24-363.32l4.24-186.04.08-3.56h36.92s1.4,2.72,3.96,7.88c4.52,9.04,12.6,25.68,23.08,48.76.96,2.16,1.96,4.36,3,6.64,12.88,28.8,28.96,66.56,46.12,111.24,29.84,77.72,62.88,176.56,88.32,286.32,7.2,31.04,10.64,62.16,10.64,92.92,0,3.36-.04,6.68-.12,10.04,0,.4,0,.76-.04,1.16,1.56.56,3.12,1.12,4.68,1.72Z"/><path class="cls-11" d="M2409.96,2964.34l-5.95,2.65c-255.81,114.06-548.19,113.34-803.43-2h0c-179.72-81.21-278-277.93-233.49-470.05,25.43-109.75,58.5-208.58,88.32-286.31,41.22-107.39,76.17-174.53,76.17-174.53h949.56s40.07,76.91,84.95,197.81c27.24,73.32,56.24,162.82,79.14,261.14,44.94,192.98-54.31,390.6-235.27,471.29Z"/><path class="cls-7" d="M1970.76,3043.61c69.07,18.95,138.56,32.08,144.4,42.62,16.54,29.85-162.84,104.97-266.26,63.48"/><path class="cls-11" d="M1891.27,3029.85c21.13-13.34,41.01,3.2,79.49,13.76,69.07,18.95,138.56,32.08,144.4,42.62,16.54,29.85-162.84,104.97-266.26,63.48-81.58-32.73,11.24-100.2,42.37-119.86Z"/><path class="cls-7" d="M2013.52,2945.94c69.18,18.56,138.74,31.28,144.64,41.79,16.71,29.75-162.24,105.9-265.89,65"/><path class="cls-11" d="M1933.95,2932.64c21.05-13.46,41.02,2.97,79.56,13.3,69.18,18.56,138.74,31.28,144.64,41.79,16.71,29.75-162.24,105.9-265.89,65-81.76-32.26,10.67-100.27,41.69-120.1Z"/><path class="cls-7" d="M1910.77,2833.17c20.74-13.94,41.08,2.03,79.85,11.49,69.59,16.98,139.42,28.12,145.55,38.49,17.38,29.37-159.78,109.57-264.34,71.04-82.48-30.39,8.38-100.48,38.94-121.02Z"/><path class="cls-11" d="M1910.77,2833.17c20.74-13.94,41.08,2.03,79.85,11.49,69.59,16.98,139.42,28.12,145.55,38.49,17.38,29.37-159.78,109.57-264.34,71.04-82.48-30.39,8.38-100.48,38.94-121.02Z"/><path class="cls-2" d="M1927.76,3133.1c-134.84,87.72-475.19,73.66-613.97-64.87-231.58-231.16-64.88-443.42,106.7-426.37,166.42,16.54,83.6,43.58,473.19,164.41,172.93,53.63,112.27,275.96,34.09,326.82Z"/><path class="cls-2" d="M2086.17,3133.1c134.84,87.72,475.19,73.66,613.97-64.87,231.58-231.16,64.88-443.42-106.7-426.37-166.42,16.54-83.6,43.58-473.19,164.41-172.93,53.63-112.27,275.96-34.09,326.82Z"/><path class="cls-2" d="M1927.76,3133.1c-134.84,87.72-475.19,73.66-613.97-64.87-231.58-231.16-64.88-443.42,106.7-426.37,166.42,16.54,83.6,43.58,473.19,164.41,172.93,53.63,112.27,275.96,34.09,326.82Z"/><path class="cls-2" d="M2086.17,3133.1c134.84,87.72,475.19,73.66,613.97-64.87,231.58-231.16,64.88-443.42-106.7-426.37-166.42,16.54-83.6,43.58-473.19,164.41-172.93,53.63-112.27,275.96-34.09,326.82Z"/><path class="cls-4" d="M1927.74,3133.1c-134.84,87.72-475.16,73.68-613.96-64.88-157.36-157.08-130.84-305.4-43.84-379,41.04-34.72,95.56-52.84,150.56-47.36,136.4,13.56,105.32,34.2,304.32,107.72,43.76,16.2,98.6,34.92,168.84,56.72,172.96,53.6,112.28,275.92,34.08,326.8Z"/><path class="cls-9" d="M1927.74,3133.1c-134.84,87.72-475.16,73.68-613.96-64.88-104.72-104.52-128-205.16-106.2-282.52,13.56,53.28,46.8,111.36,106.2,170.64,138.8,138.52,479.12,152.56,613.96,64.84,29.92-19.44,57.28-64,69.92-114.6,25.52,85.08-18.4,193-69.92,226.52Z"/><path class="cls-11" d="M1927.76,3133.1c-134.84,87.72-475.19,73.66-613.97-64.87-231.58-231.16-64.88-443.42,106.7-426.37,166.42,16.54,83.6,43.58,473.19,164.41,172.93,53.63,112.27,275.96,34.09,326.82Z"/><path class="cls-7" d="M2043.17,3043.61c-69.07,18.95-138.56,32.08-144.4,42.62-16.54,29.85,162.84,104.97,266.26,63.48"/><path class="cls-11" d="M2122.66,3029.85c-21.13-13.34-41.01,3.2-79.49,13.76-69.07,18.95-138.56,32.08-144.4,42.62-16.54,29.85,162.84,104.97,266.26,63.48,81.58-32.73-11.24-100.2-42.37-119.86Z"/><path class="cls-7" d="M2000.41,2945.94c-69.18,18.56-138.74,31.28-144.64,41.79-16.71,29.75,162.24,105.9,265.89,65"/><path class="cls-11" d="M2079.97,2932.64c-21.05-13.46-41.02,2.97-79.56,13.3-69.18,18.56-138.74,31.28-144.64,41.79-16.71,29.75,162.24,105.9,265.89,65,81.76-32.26-10.67-100.27-41.69-120.1Z"/><path class="cls-7" d="M2103.16,2833.17c-20.74-13.94-41.08,2.03-79.85,11.49-69.59,16.98-139.42,28.12-145.55,38.49-17.38,29.37,159.78,109.57,264.34,71.04,82.48-30.39-8.38-100.48-38.94-121.02Z"/><path class="cls-11" d="M2103.16,2833.17c-20.74-13.94-41.08,2.03-79.85,11.49-69.59,16.98-139.42,28.12-145.55,38.49-17.38,29.37,159.78,109.57,264.34,71.04,82.48-30.39-8.38-100.48-38.94-121.02Z"/><path class="cls-4" d="M2086.17,3133.1c134.84,87.72,475.19,73.66,613.97-64.87,231.58-231.16,64.88-443.42-106.7-426.37-166.42,16.54-83.6,43.58-473.19,164.41-172.93,53.63-112.27,275.96-34.09,326.82Z"/><path class="cls-9" d="M2700.14,3068.22c-138.8,138.56-479.12,152.6-613.96,64.88-51.76-33.68-95.84-142.4-69.56-227.64,12.8,50,39.92,93.92,69.56,113.2,134.84,87.72,475.16,73.64,613.96-64.88,58.92-58.84,92.08-116.44,105.88-169.32,22.36,77.52-.6,178.68-105.88,283.76Z"/><path class="cls-11" d="M2086.17,3133.1c134.84,87.72,475.19,73.66,613.97-64.87,231.58-231.16,64.88-443.42-106.7-426.37-166.42,16.54-83.6,43.58-473.19,164.41-172.93,53.63-112.27,275.96-34.09,326.82Z"/><path class="cls-4" d="M1673.28,1976.82l-18,57.28-34.28,109.12-55.8,177.56s-62.16,200.72-206.04,313.72c-46.6,36.64-101.8,64.04-166.24,72.44-437.04,56.88-293.36-271.04-293.36-271.04,0,0,214.36-28.12,286.4-52.72,97.84-33.44,141.4-184.56,285.28-301.04,17.28-13.96,36-27.44,56.4-40.16,4.28-2.68,8.64-5.28,13.04-7.88,38-22.24,81.68-41.84,132.6-57.28Z"/><path class="cls-9" d="M1559.92,2336.26c2.56-7.12,4.16-12,4.88-14.2l-1.2,4.04s-1.12,3.6-3.68,10.16Z"/><path class="cls-9" d="M1565.12,2321.02l-.32,1.04c.16-.48.24-.84.32-1.04Z"/><path class="cls-9" d="M1559.76,2336.62c-17.48,48.32-77.96,196.4-191.8,290.76-.84.72-1.68,1.4-2.52,2.08-2.08,1.72-4.16,3.4-6.28,5.04-46.6,36.64-101.8,64.04-166.24,72.44-437.04,56.88-293.36-271.04-293.36-271.04,0,0,172.6-29.16,247.68-42.04,32.6,63.88-66.47,89.17-66.47,143.47s24.71,72.6,70.46,82.35c79.7,16.98,163.18-2.84,227.43-52.96.43-.34.86-.67,1.29-1.01,119.16-93.56,166.88-196.48,179.8-229.08Z"/><path class="cls-8" d="M1674.82,1981.92c-34.89,18.67-69.33,34.97-102.63,53.47-33.14,18.69-64.78,39.64-94.52,63.31-7.55,5.77-14.54,12.24-21.84,18.35-6.9,6.57-14.07,12.84-20.73,19.69-13.71,13.27-26.42,27.62-38.91,42.17-24.77,29.36-47.53,60.61-70.52,92.38-11.53,15.87-23.24,31.84-35.8,47.49-12.59,15.63-26.05,31.04-41.77,44.95-15.65,13.86-33.97,26.18-54.79,33.72-20,6.97-39.24,11.23-58.7,15.68-77.56,16.4-155,27.91-232.97,38.62l12.57-9.44c-1.82,4.29-3.78,9.66-5.47,14.63-1.73,5.08-3.32,10.24-4.78,15.43-2.99,10.37-5.29,20.91-7.15,31.48-3.55,21.13-5.07,42.57-2.66,63.22,2.28,20.63,8.16,40.46,18.45,57.59,10.32,17.11,25.2,31.1,42.66,41.74,17.47,10.75,37.75,17.45,58.44,22.44l15.74,3.31c5.32.85,10.73,1.42,16.09,2.15,10.67,1.74,21.67,1.95,32.56,2.67,2.73.13,5.44.4,8.19.42l8.25-.03,16.51-.05c5.49.12,11.02-.31,16.55-.63l16.57-.97,8.29-.49,8.29-.9,16.58-1.78c5.47-.67,11.18-1.01,16.45-1.95l15.89-2.71c20.99-4.46,41.83-10.22,61.5-19.13,19.75-8.59,38.89-18.86,56.71-31.31,17.94-12.22,35.03-25.88,50.83-41.05,15.9-15.04,30.97-31.09,44.82-48.24,27.86-34.12,52.55-71.29,72.43-111l30.19-59.4c5.18-9.87,10.31-19.77,16.03-29.5,5.56-9.77,11.39-19.57,17.95-29.04l.12-.17c1.74-2.51,5.19-3.13,7.7-1.39,1.59,1.1,2.42,2.92,2.38,4.72-.38,12.1-2.43,23.54-5.08,34.89-2.64,11.32-6.03,22.42-10.08,33.24-8.05,21.67-17.93,42.63-29.41,62.7-23.16,39.98-47.8,79.32-77.47,115.24-14.62,18.09-30.62,35.16-47.62,51.24-16.89,16.2-35.31,30.95-54.78,44.22-38.82,26.71-83.32,46.2-130.06,55.38l-17.6,2.99c-5.88,1.02-11.51,1.35-17.28,2.06l-17.21,1.85-8.6.92-8.67.52-17.35,1.01c-5.78.33-11.55.77-17.39.66l-17.47.06-8.74.02c-2.91-.02-5.85-.3-8.77-.44-11.71-.77-23.4-1.03-35.13-2.89-5.86-.8-11.72-1.43-17.58-2.37l-17.52-3.66c-23.2-5.6-46.52-13.22-67.81-26.25-21.21-12.85-40.33-30.71-53.44-52.51-13.12-21.79-20.24-46.41-22.91-70.72-2.79-24.42-1-48.63,2.94-72.11,2.06-11.74,4.61-23.35,7.89-34.75,1.61-5.71,3.36-11.38,5.28-17.02,1.97-5.74,3.85-11.03,6.46-17.17l3.48-8.2,9.09-1.25c77.11-10.58,154.66-22.15,230.3-38.15,18.68-4.24,37.72-8.59,54.69-14.53,16.05-5.82,30.87-15.58,44.46-27.61,13.61-12.03,26.06-26.16,37.99-41,11.93-14.87,23.39-30.47,34.86-46.27,22.9-31.63,46.23-63.73,71.96-94.22,25.94-30.3,53.66-59.52,84.55-85.42,30.69-26.08,64.52-48.76,100.72-66.43,36.07-17.82,74.73-30.48,114.7-34.67,2.98-.31,5.66,1.85,5.97,4.84.24,2.26-.95,4.34-2.83,5.35l-.04.02Z"/><path class="cls-7" d="M1066.17,2477.33c-8.92,9.21-23.53,9.57-32.99.92-22.34-20.44-66.55-52.22-126.32-53.23-47.49-.8,34.39-78.82,109.43-72.59,49.84,4.13,85.35,26.02,106.6,43.97,12.39,10.47,10.68,29.98-3.21,38.37-8.73,5.28-19.26,12.32-31.12,21.56-6.52,5.08-15.01,13.38-22.41,21.02Z"/><path class="cls-9" d="M1119.68,2434.74c-8.72,5.28-19.24,12.32-31.12,21.56-6.52,5.08-15,13.4-22.4,21.04-8.92,9.2-23.52,9.56-32.96.92-22.36-20.48-66.56-52.24-126.32-53.24-25.64-.44-13.6-23.36,14.68-43.4,56.8,2.92,98.84,33.28,120.48,53.04,9.44,8.68,24.04,8.32,32.96-.92,7.4-7.6,15.88-15.92,22.4-21,8.96-6.96,17.12-12.68,24.32-17.32.4.28.8.64,1.2.96,12.36,10.48,10.64,29.96-3.24,38.36Z"/><path class="cls-11" d="M1064.63,2478.93c-8.02,8.34-21.28,8.81-29.73.9-21.74-20.34-66.7-53.78-128.03-54.82-47.49-.8,34.39-78.82,109.43-72.59,52.36,4.34,88.91,28.28,109.72,46.66,10.76,9.5,8.89,26.71-3.49,33.99-9.25,5.43-20.78,12.99-33.95,23.25-6.98,5.44-16.22,14.57-23.95,22.61Z"/><path class="cls-7" d="M968.5,2614.8s-72.1,20.41-98.42-64.96c-36.13-117.21,52.31-175.57,71.59-169.24,19.28,6.33-7.46,72.83,55.71,128.91,23.33,20.72,9.06,74.83-28.87,105.29Z"/><path class="cls-9" d="M968.52,2614.78s-72.12,20.44-98.44-64.96c-11.24-36.44-10.4-67.2-3.36-92.08.96,4.04,2.08,8.12,3.36,12.32,26.32,85.4,98.44,64.96,98.44,64.96,10.28-8.24,18.8-18.2,25.32-28.76,1.16,1.08,2.32,2.16,3.52,3.24,23.36,20.72,9.08,74.84-28.84,105.28Z"/><path class="cls-11" d="M968.5,2614.8s-72.1,20.41-98.42-64.96c-36.13-117.21,52.31-175.57,71.59-169.24,19.28,6.33-7.46,72.83,55.71,128.91,23.33,20.72,9.06,74.83-28.87,105.29Z"/><path class="cls-7" d="M1035.62,2672.76c-14.41,14.55-35.24,21.39-86.69,12.03-105.19-19.14-183.78-92.19-158.41-119.22,17.12-18.25,52.48-3.12,97.04-1.34,78.76,3.16,99.57-11.47,117.96-11.47,40.77,0,73.17,76.52,30.1,120Z"/><path class="cls-9" d="M1035.6,2672.74c-14.4,14.56-35.2,21.4-86.68,12.04-102.64-18.64-179.88-88.6-160.04-117.12,27.84,28.08,80.28,57.76,141.84,68.96,51.44,9.36,72.28,2.52,86.68-12.04,15.48-15.64,21.24-35.56,20.28-54.64,21.16,25.12,28.28,72.16-2.08,102.8Z"/><path class="cls-11" d="M1035.62,2672.76c-14.41,14.55-35.24,21.39-86.69,12.03-105.19-19.14-183.78-92.19-158.41-119.22,17.12-18.25,52.48-3.12,97.04-1.34,78.76,3.16,99.57-11.47,117.96-11.47,40.77,0,73.17,76.52,30.1,120Z"/><path class="cls-4" d="M2326.72,1976.82l18,57.28,34.28,109.12,55.8,177.56s62.16,200.72,206.04,313.72c46.6,36.64,101.8,64.04,166.24,72.44,437.04,56.88,293.36-271.04,293.36-271.04,0,0-214.36-28.12-286.4-52.72-97.84-33.44-141.4-184.56-285.28-301.04-17.28-13.96-36-27.44-56.4-40.16-4.28-2.68-8.64-5.28-13.04-7.88-38-22.24-81.68-41.84-132.6-57.28Z"/><path class="cls-9" d="M2440.24,2336.62c17.48,48.32,77.96,196.4,191.8,290.76.84.72,1.68,1.4,2.52,2.08,2.08,1.72,4.16,3.4,6.28,5.04,46.6,36.64,101.8,64.04,166.24,72.44,437.04,56.88,293.36-271.04,293.36-271.04,0,0-172.6-29.16-247.68-42.04-32.6,63.88,66.47,89.17,66.47,143.47s-24.71,72.6-70.46,82.35c-79.7,16.98-163.18-2.84-227.43-52.96-.43-.34-.86-.67-1.29-1.01-119.16-93.56-166.88-196.48-179.8-229.08Z"/><path class="cls-8" d="M2328.28,1971.71c39.97,4.18,78.62,16.85,114.7,34.67,36.2,17.67,70.02,40.36,100.72,66.43,30.9,25.9,58.61,55.13,84.55,85.42,25.73,30.49,49.07,62.59,71.96,94.22,11.47,15.8,22.93,31.4,34.86,46.27,11.94,14.84,24.38,28.97,37.99,41,13.59,12.03,28.41,21.79,44.46,27.61,16.97,5.94,36.01,10.29,54.69,14.53,75.64,16,153.19,27.57,230.3,38.15l9.09,1.25,3.48,8.2c2.61,6.14,4.49,11.43,6.46,17.17,1.92,5.64,3.67,11.31,5.28,17.02,3.29,11.4,5.83,23.01,7.89,34.75,3.94,23.48,5.73,47.69,2.94,72.11-2.67,24.31-9.79,48.94-22.91,70.72-13.11,21.8-32.23,39.66-53.44,52.51-21.29,13.03-44.61,20.65-67.81,26.25l-17.52,3.66c-5.85.95-11.72,1.58-17.58,2.37-11.73,1.86-23.42,2.12-35.13,2.89-2.92.14-5.86.41-8.77.44l-8.74-.02-17.47-.06c-5.84.11-11.61-.33-17.39-.66l-17.35-1.01-8.67-.52-8.6-.92-17.21-1.85c-5.77-.71-11.4-1.04-17.28-2.06l-17.6-2.99c-46.74-9.18-91.24-28.67-130.06-55.38-19.48-13.27-37.89-28.03-54.78-44.22-17-16.08-33-33.15-47.62-51.24-29.67-35.92-54.3-75.26-77.47-115.24-11.48-20.07-21.36-41.03-29.41-62.7-4.05-10.82-7.44-21.92-10.08-33.24-2.65-11.34-4.7-22.79-5.08-34.89-.1-3.05,2.3-5.61,5.35-5.7,1.93-.06,3.66.88,4.7,2.35l.14.2c6.56,9.46,12.39,19.27,17.95,29.04,5.71,9.73,10.85,19.63,16.03,29.5l30.19,59.4c19.88,39.7,44.56,76.88,72.43,111,13.85,17.15,28.92,33.2,44.82,48.24,15.8,15.17,32.89,28.82,50.83,41.05,17.82,12.45,36.96,22.72,56.71,31.31,19.67,8.91,40.51,14.67,61.5,19.13l15.89,2.71c5.28.94,10.98,1.28,16.45,1.95l16.58,1.78,8.29.9,8.29.49,16.57.97c5.52.32,11.05.75,16.55.63l16.51.05,8.25.03c2.75-.02,5.46-.29,8.19-.42,10.89-.73,21.89-.94,32.56-2.67,5.36-.73,10.77-1.3,16.09-2.15l15.74-3.31c20.69-4.99,40.97-11.69,58.44-22.44,17.46-10.64,32.34-24.63,42.66-41.74,10.28-17.13,16.17-36.96,18.45-57.59,2.4-20.65.89-42.09-2.66-63.22-1.86-10.56-4.16-21.11-7.15-31.48-1.47-5.19-3.05-10.34-4.78-15.43-1.69-4.98-3.65-10.35-5.47-14.63l12.57,9.44c-77.97-10.71-155.4-22.22-232.97-38.62-19.46-4.45-38.69-8.72-58.7-15.68-20.82-7.53-39.14-19.86-54.79-33.72-15.72-13.92-29.18-29.33-41.77-44.95-12.56-15.66-24.27-31.63-35.8-47.49-22.99-31.77-45.75-63.03-70.52-92.38-12.5-14.54-25.2-28.9-38.91-42.17-6.66-6.85-13.83-13.11-20.73-19.69-7.3-6.1-14.29-12.57-21.84-18.35-29.74-23.67-61.38-44.62-94.52-63.31-33.3-18.5-67.74-34.8-102.63-53.47l-.03-.02c-2.64-1.42-3.64-4.71-2.23-7.35,1.07-2,3.22-3.06,5.35-2.84Z"/><path class="cls-7" d="M2933.83,2477.33c8.92,9.21,23.53,9.57,32.99.92,22.34-20.44,66.55-52.22,126.32-53.23,47.49-.8-34.39-78.82-109.43-72.59-49.84,4.13-85.35,26.02-106.6,43.97-12.39,10.47-10.68,29.98,3.21,38.37,8.73,5.28,19.26,12.32,31.12,21.56,6.52,5.08,15.01,13.38,22.41,21.02Z"/><path class="cls-9" d="M2880.32,2434.74c8.72,5.28,19.24,12.32,31.12,21.56,6.52,5.08,15,13.4,22.4,21.04,8.92,9.2,23.52,9.56,32.96.92,22.36-20.48,66.56-52.24,126.32-53.24,25.64-.44,13.6-23.36-14.68-43.4-56.8,2.92-98.84,33.28-120.48,53.04-9.44,8.68-24.04,8.32-32.96-.92-7.4-7.6-15.88-15.92-22.4-21-8.96-6.96-17.12-12.68-24.32-17.32-.4.28-.8.64-1.2.96-12.36,10.48-10.64,29.96,3.24,38.36Z"/><path class="cls-11" d="M2935.37,2478.93c8.02,8.34,21.28,8.81,29.73.9,21.74-20.34,66.7-53.78,128.03-54.82,47.49-.8-34.39-78.82-109.43-72.59-52.36,4.34-88.91,28.28-109.72,46.66-10.76,9.5-8.89,26.71,3.49,33.99,9.25,5.43,20.78,12.99,33.95,23.25,6.98,5.44,16.22,14.57,23.95,22.61Z"/><path class="cls-7" d="M3031.5,2614.8s72.1,20.41,98.42-64.96c36.13-117.21-52.31-175.57-71.59-169.24-19.28,6.33,7.46,72.83-55.71,128.91-23.33,20.72-9.06,74.83,28.87,105.29Z"/><path class="cls-9" d="M3031.48,2614.78s72.12,20.44,98.44-64.96c11.24-36.44,10.4-67.2,3.36-92.08-.96,4.04-2.08,8.12-3.36,12.32-26.32,85.4-98.44,64.96-98.44,64.96-10.28-8.24-18.8-18.2-25.32-28.76-1.16,1.08-2.32,2.16-3.52,3.24-23.36,20.72-9.08,74.84,28.84,105.28Z"/><path class="cls-11" d="M3031.5,2614.8s72.1,20.41,98.42-64.96c36.13-117.21-52.31-175.57-71.59-169.24-19.28,6.33,7.46,72.83-55.71,128.91-23.33,20.72-9.06,74.83,28.87,105.29Z"/><path class="cls-7" d="M2964.38,2672.76c14.41,14.55,35.24,21.39,86.69,12.03,105.19-19.14,183.78-92.19,158.41-119.22-17.12-18.25-52.48-3.12-97.04-1.34-78.76,3.16-99.57-11.47-117.96-11.47-40.77,0-73.17,76.52-30.1,120Z"/><path class="cls-9" d="M2964.4,2672.74c14.4,14.56,35.2,21.4,86.68,12.04,102.64-18.64,179.88-88.6,160.04-117.12-27.84,28.08-80.28,57.76-141.84,68.96-51.44,9.36-72.28,2.52-86.68-12.04-15.48-15.64-21.24-35.56-20.28-54.64-21.16,25.12-28.28,72.16,2.08,102.8Z"/><path class="cls-11" d="M2964.38,2672.76c14.41,14.55,35.24,21.39,86.69,12.03,105.19-19.14,183.78-92.19,158.41-119.22-17.12-18.25-52.48-3.12-97.04-1.34-78.76,3.16-99.57-11.47-117.96-11.47-40.77,0-73.17,76.52-30.1,120Z"/><path class="cls-9" d="M2546.64,2087.22c-10.72,5.44-21.72,10.72-32.92,15.76-38.04,17.16-78.8,31.92-121.76,44.28-112.24,32.32-239.8,48.4-375.12,48.76-143.6.4-278.56-17-395.84-52.8-42.24-12.84-82.2-28.12-119.44-45.84-10.32-4.88-20.44-10-30.32-15.24,17.28-13.96,36-27.44,56.4-40.16,2.56-5.16,3.96-7.88,3.96-7.88h9.08c38-22.24,114.6,0,114.6,0h701.12l-18-57.28c50.92,15.44,94.6,35.04,132.6,57.28h10.16s1.6,3.04,4.48,8.88c22.24,13.96,42.48,28.84,61,44.24Z"/><path class="cls-4" d="M2831.13,1566.43c.98,368.9-363.76,544.4-814.29,545.6-450.53,1.2-816.24-172.36-817.22-541.27-.94-353.57,227.53-757.98,744.84-792.26,62.46-32.09,147.11-87.59,194.59-169.57,14.87-25.63,52.72-22.03,62.21,6.12,12.58,37.41,24.13,86.56-.8,150.1,69.14-33.8,137.83-72.23,160.42-92.62,24.19-21.82,62.76-4.13,61.73,28.41-1.03,31.48-12.22,98.24-25.22,154.23,297.01,139.37,433.02,439.93,433.74,711.25Z"/><path class="cls-9" d="M2831.14,1566.42c.96,368.92-363.76,544.4-814.32,545.6-450.52,1.2-816.2-172.36-817.2-541.24-.04-14.92.32-29.92,1.12-45,22.16,346.2,379.24,509.36,816.08,508.2,435.24-1.16,790.36-164.96,813.16-508.64.76,13.76,1.12,27.44,1.16,41.08Z"/><path class="cls-3" d="M2801.71,1736.72c7.84-34.84,11.85-71.81,11.74-110.95-.68-255.17-140.5-551.1-404.22-701.36-29.98-17.08-45.62-51.46-38.21-85.16,8.35-38.02,15.25-73.77,15.93-94.59,1.03-32.55-19.55-34.59-43.75-12.77-17.66,15.94-63.49,42.91-115.69,70.07-16,8.33-35.05-4.94-32.27-22.76,6.59-42.24-2.24-76.8-11.66-104.79-9.48-28.15-25.58-35.15-47.97,3.75-31.5,54.75-86.06,93.22-137.45,122.29-41.08,23.24-86.59,37.39-133.4,43.44-348.38,45.05-554.18,265.75-638.3,514.3,73.91-286.54,303.02-552.18,717.99-579.67,62.46-32.09,147.11-87.59,194.59-169.57,14.87-25.63,52.72-22.03,62.21,6.12,12.58,37.41,24.13,86.56-.8,150.1,69.14-33.8,137.83-72.23,160.42-92.62,24.19-21.82,62.76-4.13,61.73,28.41-1.03,31.48-12.22,98.24-25.22,154.23,297.01,139.37,433.02,439.93,433.74,711.25.17,62.23-10.07,118.97-29.42,170.29Z"/><path class="cls-5" d="M2669.88,1516.96c.29,107.5-31.99,223.29-129.37,312.96-99.51,91.73-267.03,156.2-537.39,156.92h-.04c-267.52.71-434.69-61.56-535.07-151.17-100.34-89.57-133.92-206.51-134.21-315.17-.06-22.08,1.7-43.78,5.17-64.86,30.42-186.57,192.08-329.17,387.28-329.68,106.76-.28,203.8,41.99,274.83,110.87,70.71-69.26,167.48-112.05,274.24-112.33,192.8-.51,353.54,137.67,387.77,320.61v.04c4.4,23.27,6.71,47.28,6.78,71.8Z"/><path class="cls-8" d="M2101.55,1542.67c.09,33.49-44.41,73.87-99.44,74.01-55.03.15-99.74-39.99-99.83-73.48s44.48-47.66,99.51-47.81c55.03-.15,99.67,13.79,99.76,47.28Z"/><path class="cls-1" d="M2045.24,1524.33c.02,7.83-18.12,17.29-40.52,17.35-22.4.06-40.59-9.31-40.61-17.14-.02-7.83,18.13-11.17,40.54-11.23,22.4-.06,40.57,3.18,40.6,11.01Z"/><path class="cls-11" d="M1533.37,2027.65c-201.9-85.25-333.16-236.08-333.75-456.89-.91-341.8,212.53-731.06,693.99-787.62"/><path class="cls-8" d="M1637.8,2066.46c-9.28.32-18.36-.27-27.42-1.12-9.02-.96-17.98-2.27-26.84-4.01-8.85-1.75-17.71-3.64-26.22-6.52-8.51-2.86-16.85-6.26-24.55-11.12-7.12-4.49-9.24-13.9-4.75-21.01,3.51-5.57,10.04-8.08,16.12-6.76l.12.03c8.58,1.88,16.63,4.97,24.61,8.34,7.97,3.36,15.7,7.45,23.5,11.45,7.8,4.01,15.58,8.21,23.37,12.54,7.76,4.43,15.56,8.9,23.23,14.06,1.03.69,1.31,2.09.62,3.13-.42.62-1.1.97-1.79,1Z"/><path class="cls-6" d="M1864.58,1524.64c-16.43,116.53-110.14,144.17-232.5,193.73-76.77,31.08-129.57,76.97-164.05,117.31-100.34-89.57-133.92-206.51-134.21-315.17-.06-22.08,1.7-43.78,5.17-64.86,71.97-75.19,185.78-147.51,349.97-128.19,120.16,14.17,187.41,113.55,175.62,197.18Z"/><path class="cls-6" d="M2669.88,1516.96c.29,107.5-31.99,223.29-129.37,312.96-34.78-39.42-87.11-83.6-162.23-113.54-122.62-48.91-216.48-76.05-233.52-192.49-12.23-83.56,54.48-183.3,174.57-198.11,158.97-19.6,271.14,47.12,343.77,119.33v.04c4.4,23.27,6.71,47.28,6.78,71.8Z"/><path class="cls-11" d="M2183.35,789.51c46.1-49.59,35.86-121.09,17.9-174.47-9.46-28.11-47.31-31.75-62.18-6.09-81.58,140.77-245.45,174.18-245.45,174.18"/><path class="cls-10" d="M2480.93,2032.91c212.14-84.84,350.8-238.84,350.2-466.48-.72-272.12-137.5-573.61-436.33-712.49l1.42-2.98c18.55-40.13,24.77-100.15,26.37-150,1.05-32.56-37.52-50.22-61.72-28.4-44.16,39.82-105.78,86.08-161.15,94.61"/><path class="cls-8" d="M2365.53,2068.29c8.51-5.17,17.12-9.65,25.69-14.12,8.6-4.36,17.17-8.6,25.76-12.67,8.59-4.06,17.1-8.22,25.84-11.66,8.73-3.46,17.54-6.64,26.84-8.62l.09-.02c8.21-1.75,16.29,3.49,18.04,11.7,1.4,6.57-1.69,13.05-7.18,16.28-8.49,4.98-17.6,8.48-26.87,11.41-9.27,2.95-18.87,4.9-28.47,6.68-9.6,1.78-19.31,3.11-29.06,4.07-9.78.86-19.6,1.44-29.58,1.09-1.24-.04-2.2-1.08-2.16-2.32.03-.78.46-1.46,1.08-1.84Z"/><path class="cls-8" d="M1538.28,1523.04c2.15-2.62,3.7-4.37,5.55-6.42,1.81-1.95,3.67-3.79,5.55-5.61,3.74-3.67,7.75-6.94,11.79-10.22,8.16-6.42,16.93-12.06,26.16-17.01,18.48-9.79,38.95-16.54,60.21-19.62,10.65-1.47,21.47-1.93,32.25-1.5,10.78.63,21.49,2.18,31.9,4.81,20.76,5.39,40.23,14.77,56.21,28,7.44,6.16,8.47,17.18,2.31,24.62-4.22,5.1-10.73,7.19-16.8,6.01l-.83-.17c-17.51-3.43-33.76-6.36-49.84-7.6-8.05-.48-15.98-.78-23.91-.57-7.93.24-15.82.86-23.73,1.81-15.79,2.14-31.61,5.8-47.44,10.94-7.93,2.51-15.83,5.44-23.77,8.55-4.02,1.47-7.89,3.25-11.86,4.87l-5.87,2.55c-1.9.74-4.05,1.86-5.47,2.26l-4.72,1.32c-9.01,2.53-18.36-2.72-20.88-11.73-1.54-5.49-.12-11.19,3.21-15.32Z"/><path class="cls-8" d="M2460.37,1546.37c-1.43-.39-3.58-1.51-5.49-2.24l-5.88-2.52c-3.98-1.6-7.86-3.36-11.89-4.81-7.95-3.07-15.86-5.96-23.81-8.42-15.85-5.06-31.69-8.63-47.5-10.69-7.91-.91-15.81-1.48-23.74-1.69-7.93-.16-15.87.17-23.91.7-16.07,1.32-32.3,4.34-49.8,7.87l-.81.16c-9.47,1.91-18.69-4.22-20.59-13.69-1.31-6.49,1.18-12.88,5.92-16.86,15.9-13.32,35.33-22.8,56.06-28.3,10.39-2.68,21.1-4.3,31.87-4.98,10.78-.48,21.6-.09,32.25,1.33,21.28,2.97,41.78,9.6,60.32,19.3,9.25,4.9,18.05,10.49,26.25,16.87,4.06,3.25,8.09,6.5,11.85,10.15,1.89,1.81,3.75,3.64,5.58,5.58,1.86,2.04,3.42,3.78,5.58,6.39,5.97,7.2,4.97,17.88-2.23,23.85-4.39,3.64-10.08,4.69-15.2,3.32l-4.82-1.33Z"/><path class="cls-8" d="M2115.92,1700.13c-4.32,4.02-8.01,6.97-12.21,10.06-4.1,3.01-8.38,5.7-12.7,8.38-8.71,5.2-17.93,9.57-27.55,13.2-19.18,7.31-40.14,11.48-61.76,11.19-21.99-.4-42.93-5.62-61.78-13.87-9.42-4.18-18.42-9-26.86-14.61-4.17-2.9-8.33-5.75-12.26-8.98-4.04-3.24-7.58-6.4-11.69-10.56-6.26-6.34-6.2-16.56.15-22.82,4.37-4.31,10.57-5.62,16.05-3.95l2.43.75c3.5,1.08,7.81,2.8,11.79,4.14,4.06,1.4,8.07,2.87,12.14,4.13,8.09,2.63,16.13,5.01,24.1,7.03,15.94,4.11,31.61,6.53,46.59,6.74,7.65,0,15.49-.28,23.4-1.28,7.93-.75,15.93-2.18,24.02-3.78,8.09-1.6,16.26-3.57,24.46-5.79,4.14-1.02,8.22-2.26,12.35-3.44,4.02-1.13,8.44-2.6,11.97-3.45l2.55-.62c8.66-2.1,17.39,3.22,19.49,11.89,1.42,5.86-.58,11.77-4.69,15.62Z"/></svg>