<svg width="88" height="88" viewBox="0 0 88 88" fill="none" xmlns="http://www.w3.org/2000/svg">
    <g clip-path="url(#clip0_86_60)">
        <path d="M0.672052 0.924629L0.247803 1.33191V32.3191V63.3063L0.672052 63.7136L1.07933 64.1378H11.448H21.7997V67.8712C21.7997 71.1634 21.8336 71.6895 22.1391 72.4871C22.5633 73.641 23.6664 74.7271 24.8203 75.1683C25.6858 75.5077 26.2119 75.5077 48.0013 75.5077C69.095 75.5077 70.3169 75.5247 70.4017 75.7962C70.4526 75.9659 70.9957 78.2738 71.6066 80.9381C72.2175 83.6024 72.7775 85.9443 72.8793 86.1649C73.1339 86.7249 73.8636 86.9625 74.4915 86.657C74.8648 86.4703 75.1194 86.1479 75.4079 85.4182C75.6455 84.8582 76.0358 83.9248 76.3073 83.3309L76.7994 82.2448L79.3958 84.8073C81.534 86.9285 82.0601 87.3867 82.4674 87.3867C82.8747 87.3867 83.3498 86.9964 85.0468 85.2994C86.7438 83.6024 87.1341 83.1273 87.1341 82.72C87.1341 82.3127 86.676 81.7866 84.5547 79.6484L81.9922 77.052L83.0783 76.5599C83.6723 76.2883 84.6056 75.898 85.1656 75.6605C86.4384 75.1514 86.8287 74.5065 86.3875 73.675C86.2178 73.3525 85.9293 73.081 85.6408 73.0131C85.3862 72.9453 82.9765 72.3852 80.2613 71.7743L75.34 70.6373L75.2551 54.0237C75.1533 35.3398 75.2721 36.7822 73.8466 35.3228C72.7775 34.2367 71.7763 33.9313 69.3157 33.9313H67.2793V17.6401V1.33191L66.855 0.924629L66.4477 0.500381H33.7635H1.07933L0.672052 0.924629ZM64.7338 6.01562V8.98537H33.7635H2.7933V6.01562V3.04588H33.7635H64.7338V6.01562ZM64.7338 22.7311V33.9313H60.9155H57.0973V30.6221C57.0973 27.313 57.0973 27.296 56.673 26.8887C56.1469 26.3457 55.5021 26.3457 54.976 26.8887C54.5518 27.296 54.5518 27.313 54.5518 30.6221V33.9313H40.1273C26.161 33.9313 25.6858 33.9482 24.8203 34.2707C23.6664 34.6949 22.5803 35.798 22.1391 36.9519C21.8167 37.7834 21.7997 38.2756 21.7997 45.386V52.9376H20.7985C19.5427 52.9376 18.9148 53.3619 18.9148 54.2104C18.9148 55.0589 19.5427 55.4831 20.7985 55.4831H21.7997V58.5377V61.5923H12.2965H2.7933V36.5616V11.5309H33.7635H64.7338V22.7311ZM71.6405 36.8162C72.7775 37.495 72.7096 36.4937 72.7096 54.0916V70.0264L71.6066 69.7719C69.706 69.3137 69.0611 69.9585 69.5193 71.8592L69.7738 72.9622H47.8656C26.4325 72.9622 25.9404 72.9453 25.4143 72.6228C24.2773 71.944 24.3452 72.9962 24.3452 54.7195C24.3452 36.4428 24.2773 37.495 25.4143 36.8162C25.9404 36.4768 26.4325 36.4768 48.5274 36.4768C70.6223 36.4768 71.1145 36.4768 71.6405 36.8162ZM76.7146 73.5562C78.9376 74.0822 80.8552 74.5235 80.9401 74.5574C81.0419 74.5913 80.6007 74.8459 79.9728 75.1344C79.3619 75.4059 78.7679 75.7962 78.6661 75.9829C78.2419 76.7805 78.4116 77.035 81.2795 79.9199L84.0795 82.7369L83.282 83.5345L82.4844 84.3321L79.6673 81.5321C76.7824 78.6641 76.5279 78.4944 75.7303 78.9187C75.5436 79.0205 75.1533 79.6145 74.8818 80.2254C74.5933 80.8533 74.3388 81.2775 74.3048 81.1927C74.186 80.8702 72.3702 72.9453 72.3702 72.7925C72.3702 72.5549 72.2684 72.538 76.7146 73.5562Z"
              fill="#909090"/>
        <path d="M49.8851 5.16733C49.6475 5.38794 49.4608 5.77825 49.4608 6.01583C49.4608 6.2534 49.6475 6.64371 49.8851 6.86432C50.2414 7.23766 50.4451 7.28857 51.5821 7.28857C52.7191 7.28857 52.9227 7.23766 53.2791 6.86432C53.5166 6.64371 53.7033 6.2534 53.7033 6.01583C53.7033 5.77825 53.5166 5.38794 53.2791 5.16733C52.9227 4.79399 52.7191 4.74308 51.5821 4.74308C50.4451 4.74308 50.2414 4.79399 49.8851 5.16733Z"
              fill="#909090"/>
        <path d="M56.673 5.16733C56.4354 5.38794 56.2488 5.77825 56.2488 6.01583C56.2488 6.2534 56.4354 6.64371 56.673 6.86432C57.0294 7.23766 57.233 7.28857 58.37 7.28857C59.507 7.28857 59.7107 7.23766 60.067 6.86432C60.3046 6.64371 60.4913 6.2534 60.4913 6.01583C60.4913 5.77825 60.3046 5.38794 60.067 5.16733C59.7107 4.79399 59.507 4.74308 58.37 4.74308C57.233 4.74308 57.0294 4.79399 56.673 5.16733Z"
              fill="#909090"/>
        <path d="M10.8541 18.0642C10.4468 18.4545 10.4298 18.5733 10.4298 20.406C10.4298 22.103 10.4637 22.3745 10.7692 22.697C11.0068 22.9346 11.3292 23.0703 11.7026 23.0703C12.6189 23.0703 12.9753 22.5612 12.9753 21.2545V20.1854H14.0444C15.3511 20.1854 15.8602 19.829 15.8602 18.9127C15.8602 18.5393 15.7244 18.2169 15.4869 17.9793C15.1644 17.6739 14.8929 17.6399 13.1959 17.6399C11.3632 17.6399 11.2444 17.6569 10.8541 18.0642Z"
              fill="#909090"/>
        <path d="M19.356 17.9964C18.7451 18.4716 18.7451 19.354 19.356 19.8292C19.7803 20.1686 20.0348 20.1855 22.9027 20.1855C25.6858 20.1855 26.0422 20.1516 26.3986 19.8631C26.9416 19.4219 26.9416 18.4037 26.3986 17.9625C26.0422 17.674 25.6858 17.64 22.9027 17.64C20.0348 17.64 19.7803 17.657 19.356 17.9964Z"
              fill="#909090"/>
        <path d="M30.1999 18.0643C29.9623 18.2849 29.7756 18.6752 29.7756 18.9128C29.7756 19.1504 29.9623 19.5407 30.1999 19.7613C30.6072 20.1855 30.6411 20.1855 33.7636 20.1855C36.8861 20.1855 36.92 20.1855 37.3273 19.7613C37.5649 19.5407 37.7515 19.1504 37.7515 18.9128C37.7515 18.6752 37.5649 18.2849 37.3273 18.0643C36.92 17.64 36.8861 17.64 33.7636 17.64C30.6411 17.64 30.6072 17.64 30.1999 18.0643Z"
              fill="#909090"/>
        <path d="M41.1285 17.9625C40.84 18.1831 40.7382 18.4546 40.7382 18.9128C40.7382 19.371 40.84 19.6425 41.1285 19.8631C41.4848 20.1516 41.8412 20.1855 44.6243 20.1855C47.4922 20.1855 47.7468 20.1686 48.171 19.8292C48.4934 19.5746 48.6122 19.3201 48.6122 18.9128C48.6122 18.5055 48.4934 18.251 48.171 17.9964C47.7468 17.657 47.4922 17.64 44.6243 17.64C41.8412 17.64 41.4848 17.674 41.1285 17.9625Z"
              fill="#909090"/>
        <path d="M52.0401 17.9793C51.5311 18.4545 51.5311 19.3709 52.0401 19.846C52.3286 20.1175 52.6341 20.1854 53.4826 20.1854H54.5517V21.2545C54.5517 22.5612 54.9081 23.0703 55.8245 23.0703C56.1978 23.0703 56.5202 22.9346 56.7578 22.697C57.0633 22.3745 57.0972 22.103 57.0972 20.406C57.0972 18.5733 57.0802 18.4545 56.673 18.0642C56.2826 17.6569 56.1639 17.6399 54.3311 17.6399C52.6341 17.6399 52.3626 17.6739 52.0401 17.9793Z"
              fill="#909090"/>
        <path d="M10.8541 26.8887C10.4298 27.296 10.4298 27.313 10.4298 30.673C10.4298 33.7276 10.4637 34.101 10.7522 34.4573C10.9728 34.7458 11.2444 34.8477 11.7026 34.8477C12.1607 34.8477 12.4323 34.7458 12.6529 34.4573C12.9414 34.101 12.9753 33.7276 12.9753 30.673C12.9753 27.313 12.9753 27.296 12.5511 26.8887C12.3304 26.6512 11.9401 26.4645 11.7026 26.4645C11.465 26.4645 11.0747 26.6512 10.8541 26.8887Z"
              fill="#909090"/>
        <path d="M11.1595 38.3434C10.4977 38.6149 10.4298 39.0222 10.4298 42.501C10.4298 45.8102 10.4298 45.8272 10.8541 46.2344C11.0747 46.472 11.465 46.6587 11.7026 46.6587C11.9401 46.6587 12.3304 46.472 12.5511 46.2344C12.9753 45.8272 12.9753 45.8102 12.9753 42.4501C12.9753 39.4634 12.9414 39.0222 12.6868 38.7167C12.3304 38.2925 11.6686 38.1228 11.1595 38.3434Z"
              fill="#909090"/>
        <path d="M10.7692 50.4259C10.4637 50.7483 10.4298 51.0198 10.4298 52.7168C10.4298 54.5496 10.4468 54.6684 10.8541 55.0587C11.2444 55.4659 11.3632 55.4829 13.1959 55.4829C14.8929 55.4829 15.1644 55.449 15.4869 55.1435C15.996 54.6684 15.996 53.752 15.4869 53.2768C15.1984 53.0053 14.8929 52.9374 14.0444 52.9374H12.9753V51.8683C12.9753 50.5616 12.6189 50.0525 11.7026 50.0525C11.3292 50.0525 11.0068 50.1883 10.7692 50.4259Z"
              fill="#909090"/>
        <path d="M57.267 54.8045L43.0122 63.0345L43.0122 46.5745L57.267 54.8045Z" fill="#909090"/>
    </g>
    <defs>
        <clipPath id="clip0_86_60">
            <rect width="86.8863" height="86.8863" fill="white" transform="translate(0.247803 0.500488)"/>
        </clipPath>
    </defs>
</svg>
